<svg version="1.2" xmlns="http://www.w3.org/2000/svg" viewBox="0 0 550 544" width="550" height="544">
	<title>create-a-modern-and-sleek-logo-for-a-website-calle-T6WUFMc_Rd6TgEakcCt-2A-NTXndsvMSh2s84tLKc4CjA-Kittl (1)-svg</title>
	<style>
		.s0 { fill: #203c73 } 
		.s1 { fill: #2e557d } 
		.s2 { fill: #2b6d91 } 
		.s3 { fill: #37838e } 
		.s4 { fill: #40b16f } 
		.s5 { fill: #47a27d } 
		.s6 { fill: #fafbfc } 
	</style>
	<g id="Layer">
		<path id="Layer" fill-rule="evenodd" class="s0" d="m192.5 335.5l3.8 3.3 7.8 6.3 4.2 3.1 8.5 6.2-0.2-0.1-8.8-6.4-4.2-3.2-8-6.5-3.9-3.3-5-4.7m52.1 14.4l-9.2-5.9-1.4-1zm-13.2-8.7l-1.8-1.2-1.1-0.9zm-9.4-6.9l-0.9-0.7-2.7-2.1-0.2-0.2zm-31.2-0.3l-0.5-0.5-2.2-2.3zm-27.7-64.4l0.5 0.2 1 0.8 0.5 0.4 1 1.3 1.7 2.3 2.9 4.2 5.7 8 2.9 3.9 5.8 7.3 2.9 3.5 5.9 6.7 3 3.3 6.1 6.2 3.1 3.1 6.4 5.7 1.6 1.4-1-0.8-2.6-2.3-5-4.6-2.5-2.3-4.8-4.8-2.3-2.4-4.5-5-2.1-2.5-4.3-5.1-2-2.7-2.8-3.5-1.7-2.1-0.6-0.8-1.2-1.4-0.3-0.4-0.4-0.4-0.1-0.1-0.1-0.1 0.4 1.8 0.5 1.5 0.4 0.7 0.7 1.4 0.4 0.5 0.3 0.5 0.1 0.1 0.3 0.3h0.1l0.3 0.5-0.3 0.7-0.3 0.4-0.7 0.9-0.2 0.3v0.1h0.1 0.1l0.4-0.2 0.3-0.2 0.6-0.3 0.3-0.1 0.1 0.1 0.1 0.1-0.1 0.2-0.1 0.4-0.1 0.3-0.1 1.2 0.2 0.7h0.2l0.4 0.4 0.2 0.4 0.1 0.3 0.5 1.5 0.2 0.9 0.4 2.2 0.2 1.1 0.3 2.5 0.1 1.2 0.3 1.4 0.3 0.4 0.2-0.1 0.6 0.2 0.3 0.6 0.1 0.5 0.2 1.1 0.1 0.6 0.2 1.4v0.8 3l-0.1 1.3-0.2 1.2-0.2 0.5-0.3 0.8-0.2 0.2-0.4 0.2-0.5-0.1-0.3-0.1-1.1-0.7-0.7-0.5-1.6-1.5-0.9-0.7-0.3-0.2-0.5-0.3-0.2-0.1h-0.2v0.1l0.1 0.3 0.2 0.3 0.4 0.5-1.3-1.5-1.3-1.5-2.7-3.4-2.7-3.4-5.5-7.5-1.4-1.8-2.5-3.6-1.3-1.8-2.2-3.4-1.1-1.7-1.9-3-2.1-3.8-1.7-3.2 4.7-5.6 0.8-0.9 1.4-1.5 0.7-0.7 1.1-1 0.6-0.5 1.1-0.6 0.5-0.2 1-0.2h0.5zm18 50l-0.1 0.1 0.1 0.2 0.1 0.5 0.1 0.3 0.5 0.9 0.2 0.3 0.6 0.4h0.3l0.6-0.1 0.2-0.2v-0.1l-0.2-0.4-0.3-0.3-0.5-0.5-0.5-0.4-0.7-0.6-0.3-0.1zm20.5-259.8l-3.2 0.9-6.2 1.6-3 0.7-4 1 5.2 0.7 3.4 0.8 1.5 0.7 0.5 0.5 0.7 0.9-0.1 0.6-0.2 1.1-0.6 0.6-0.4 0.7v0.5 0.3l0.3 0.6 0.2 0.3 0.5 0.7 0.4 0.5 1.5 1.8 0.3 0.5 0.1 0.3 0.2 0.4v0.1l0.6 0.4h0.9l0.5-0.2 1.6-0.4 0.4 0.1-0.1 0.1-0.3 0.3-0.4 0.3-0.9 0.6-0.7 0.4-1.3 0.7-0.8 0.4-1.7 0.8-0.8 0.4-3.7 1.6-1.7 0.6-1.2 0.6-0.3 0.5 0.2 0.1 0.6 0.2-7.8 1.4-4.1 0.8-8.4 1.2-13.1 1.7-15 1.6-0.3 33.8-0.2 33.8-3.6 5.5-0.6 0.7-1 1.4-0.6 0.7-0.9 1.1-0.5 0.5-0.9 0.6-0.9 0.4h-0.3l-0.8-0.5-0.4-0.3-1.1-1.1-0.5-0.5-1.3-1.6-2-2.7-4.6-6.8v-48.2-3.5-1.7-3.1-1.5l0.1-2.8v-1.3-2.5-1.2-2.1l0.1-1.1v-1.9-0.9l0.1-1.7v-1.5l0.2-2.5v-1.1l0.2-1.7 0.1-0.7 0.2-1.1 0.4-0.9 0.3-0.4 0.9-0.6 0.3-0.1 0.7-0.2 0.4-0.1 1-0.2 0.5-0.1 1.4-0.2 0.7-0.1 1.8-0.2h1l2.2-0.2 4-0.3 3.1-0.1 6.1-0.5 3-0.2 5.7-0.6 5.8-0.7 11.2-1.7 5.6-1 11.5-2.4 3-0.7 6-1.5 5.4-1.5zm46.4 6.3l-7.8 3.1-3.9 1.5-7.6 2.7-3.9 1.3-7.6 2.4-3.8 1.2-3.2 0.8 2.4-0.7 6.3-2 3.3-1 6.6-2.2 3.3-1.2 6.4-2.2 2.9-1.2 2.9-1.1 1.4-0.5 2.7-1.1 1.2-0.5 2.3-0.9zm14.9-5.2l0.2 1v0.7-0.8l-0.2-1-0.2-0.6zm0.2 1.7v0.1 0.4-0.3zm-7.6-21.9l-5.4 2.4-3 1.2-6 2.4-3.2 1.2-6.4 2.4-0.7 0.2 5.5-2.1 2.6-0.9 5-2 2.5-1 4.7-2 2.3-0.9 3.7-1.7z"/>
		<path id="Layer" fill-rule="evenodd" class="s1" d="m247.2 372.4l4.1 2.2 2 1 3.7 1.8 1.6 0.8 1.6 0.7 0.7 0.4 1.4 0.6 0.6 0.2 1.1 0.5 0.4 0.1 0.2 0.1-0.4-0.1-0.5-0.2-1.2-0.5-0.6-0.3-1.5-0.6-0.7-0.3-1.7-0.8-1.7-0.9-3.9-1.9-2-1.1-4.4-2.3-1.6-0.8m-2.4-1.3l-0.4-0.2-0.4-0.2zm-71.8-88.4l0.1 0.1 0.3 0.4 0.4 0.4 1.2 1.4 0.6 0.8 1.6 2.1 2.8 3.5 2 2.7 4.3 5.1 2.2 2.5 4.5 5 2.3 2.4 4.8 4.8 2.4 2.4 5.1 4.5 2.5 2.3 5.4 4.4 2.7 2.2 5.6 4.3 0.2 0.1-0.2-0.1-0.8-0.6-0.3-0.2-0.6-0.4-0.2-0.1-1.3-1-0.6-0.3-0.1 0.1-0.2 0.3 0.1 0.3 0.1 0.9 0.2 0.7 0.2 1.8v0.3l-0.1 0.1v0.1h-0.1-0.7l-0.7 0.4-0.3 0.3-0.6 0.9-0.4 0.9-0.1 0.5-0.5 2.2-0.1 1.3-0.2 2.6 0.1 1.2 0.1 1.2 0.1 0.5 0.2 1 0.2 0.4 0.6 2.2 0.2 1.4v0.4l0.6 1 1.1 1.1 0.8 0.6 1.4 1.2-2.2-1.5-8.5-6.2-4.2-3.1-7.8-6.4-3.9-3.2-7.2-6.6-10.2-10.4-0.7-0.7-1-1.1-0.5-0.6-0.8-0.9-0.3-0.4-0.4-0.6-0.2-0.3-0.1-0.3v-0.1l0.2 0.1h0.1l0.6 0.4 0.3 0.2 0.9 0.7 1.6 1.4 0.6 0.6 1.2 0.6 0.3 0.1 0.4 0.1 0.5-0.1 0.2-0.2 0.3-0.9 0.1-0.4 0.2-1.3 0.2-1.3-0.1-3v-0.8l-0.1-1.4-0.1-0.6-0.2-1.1-0.2-0.5-0.3-0.6-0.5-0.2-0.2 0.2-0.4-0.5-0.3-1.4-0.1-1.2-0.2-2.4-0.2-1.2-0.4-2.1-0.3-1-0.4-1.5-0.1-0.3-0.3-0.4-0.3-0.3-0.3-0.1-0.2-0.6 0.2-1.3 0.1-0.3 0.1-0.4v-0.1l-0.1-0.2v-0.1l-0.3 0.1-0.6 0.3-0.3 0.2-0.4 0.2-0.2 0.1v-0.1-0.1l0.2-0.3 0.6-0.8 0.4-0.5 0.3-0.7-0.3-0.5h-0.1l-0.3-0.2-0.2-0.2-0.3-0.4-0.3-0.5-0.7-1.4-0.4-0.8-0.6-1.5-0.3-1.8zm84 73.1l2 0.5h-0.1l-1.8-0.4-1.2-0.6-0.3-0.3zm2.5 0.4l-0.1 0.1 0.1-0.1zm0.2-0.1l-0.1 0.1 0.1-0.1zm1.1-27.1v1.8 3.4 1.5 3 1.3 2.5 1.1l-0.1 2.1v0.9 1.8 0.8l-0.1 1.4v0.6l-0.2 2.1-0.1 0.8-0.2 1.1-0.1 0.4-0.1 0.2 0.1-0.3 0.2-0.4 0.2-1.2v-0.7l0.2-2.2v-0.6l0.1-1.5v-0.7-1.8-0.9l0.1-2.2v-1.1-2.5-1.3-2.9-1.5-3.4-1.7zm-8.6 23.8h0.3l0.5 0.3h0.1-0.3l-0.6-0.3zm-73.7-37.1l0.8 0.5 0.4 0.4 0.6 0.6 0.2 0.2 0.2 0.4 0.1 0.2-0.2 0.2-0.7 0.1h-0.2l-0.6-0.5-0.3-0.3-0.4-0.9-0.2-0.3-0.1-0.5v-0.1l0.1-0.2zm25.5-103.9l-26.5 0.2h1.2 1.5 2.9 1.4l2.5-0.1h1.2 2.2 1.1l1.8-0.1h1l1.5-0.1h1.5l2.3-0.1 1-0.1 1.5-0.2 0.6-0.1 0.7-0.2 0.4-0.1 0.2-0.3zm6.6-106.5l2 0.1 3.8 0.8 1.9 0.5 2.9 1.2h-0.2l-0.2 0.3v0.3l-0.5 1.3-0.7 1.2-0.5 0.5-0.8 1-0.3 0.6v0.2l0.1 0.5 0.2 0.3 0.4 0.6 0.4 0.4 1.2 1.6 0.5 0.9v0.2l0.1 0.7 0.3 0.7 0.1 0.4 0.9 2 0.5 1.1 1.1 2.9 0.6 2.1 0.2 1 0.6 4.3-0.1 2.1-0.4 4.2-0.5 1.9-0.2 0.4 0.8-3.7 0.1-1.2 0.1-1.8v-0.8l-0.2-1.4-0.1-0.6-0.6-1.3-1.3-2.1-0.5-0.8-1.2-1.4-0.6-0.6-1.2-1.2-1.3-1.1-2.8-1.4-1.5-0.6-2.9-0.6-1.5-0.2-2.9 0.3-1.5 0.2-2.7 1.1-1.3 0.7-2.4 1.9-1.1 1.1-1.8 2.7-0.4 0.7-0.6 1.6-0.8 2.5-0.2 1-0.2 1.8v0.9l0.2 1.8 0.1 0.9 0.5 1.8 0.3 0.8 0.7 1.7 0.4 0.8 1.1 1.5 0.5 0.8 1.3 1.3 0.7 0.7 1.5 1.1 2.6 1.4 0.9 0.5 2.5 0.5 1.2 0.1 2.7-0.1 1.4-0.2 2.5-0.6 1.2-0.4 1.9-1.1 1.1-0.8 1.8-1.8 0.8-0.9 1.3-1.9-0.2 0.4-0.6 0.8-1.3 2.2-0.6 1.1-0.2 0.5-0.2 0.9 0.1 0.4 0.1 0.7 0.2 0.4 0.4 1 0.1 0.7-0.1 0.3-0.3 0.6-0.2 0.4-0.6 0.8-0.4 0.4-1.3 1.8-0.3 1 0.1 0.4 0.3 0.7 0.4 0.3 1.1 0.3h0.7l1.7 0.6 1.1 0.8 0.4 0.5 0.5 0.9 0.2 0.2 0.4 0.4h0.3l0.3-0.1-1.5 0.9-2.7 1.3-4.7 1.8v0.7h-12v-0.5l-4.9-1.8-0.9-0.3-1.7-0.8-0.8-0.4-1.7-1.1-1.7-1.1-3.3-2.8-1.6-1.5-2.8-3.3-3.3-5.2-0.6-1.2-0.9-2-0.3-1-0.5-1.9-0.2-1-0.2-2.3-0.1-4.3v-1.2l0.1-2.4 0.1-1.2 0.4-2.2 0.4-2.2 1.5-4 0.8-2 2.5-3.5 4.8-5.2 1.5-1.4 3.4-2.2 1.7-1 3.7-1.4 1.8-0.7 3.8-0.7 2-0.3zm28.9 38.6l-1.3 4.5-0.3 0.8-0.8 1.8-0.5 1-0.5 0.8 1.8-3.8 0.7-2.1 1-3.8zm-16-0.7l-0.1 0.2 0.3-0.8zm16.7-6.7l-0.1 3-0.1 1.5-0.2 0.8 0.2-1.4 0.2-3.9zm-0.6-5.8l0.3 1.4 0.1 1.3-0.4-2.8zm-0.7-2.8l0.1 0.2-0.3-0.8zm-1.5-4.1l1 2.7 0.3 0.6-1.3-3.4zm-2-3.8l0.4 0.9-1-1.6zm-0.8-1.2l-0.5-0.6zm-2.7-3.4l1 1.1 1.2 1.6-1.4-1.8-0.8-0.8-1.1-1zm-5.4-3.1l1.1 0.3 0.6 0.4 0.2 0.3 0.5 0.6 0.2 0.4 0.3 0.8v0.4l0.1 0.9v0.2l-0.1 0.5h-0.2l-0.2-0.1-0.5-0.3-0.3-0.2-1-1-0.5-1-0.2-0.5-0.3-0.9v-0.3l0.1-0.5zm33.7-52.7l0.1 1 0.1 2.3 0.1 1.5v3.2l0.1 2.1v2 1.2 2.3l0.1 1.3v2.7 1.4 3 1.6 3.2 1.8 1.7-5.3-2.8-5.1l-0.1-2.5v-4.3l-0.1-2.1v-3.5l-0.1-1.7-0.1-2.7v-1.2l-0.2-1.9v-0.1zm-15.3-19.6l-1 0.4-0.9 0.4-0.4 0.1-0.7 0.3-0.3 0.1-1.7 0.7-0.8 0.5-0.2 0.2-0.4 0.5-0.1 0.3v0.6l0.1 0.3v1.3l-0.2 0.6h-0.3l-1.3 0.6-1.2 0.9-0.6 0.5-1.1 1.1-0.4 0.5-0.7 1v0.3l0.8 0.9 1 0.7 0.7 0.3 1.8 1.3 0.7 1v0.5l0.2 0.8 0.4 0.7 0.3 0.4 1.2 1.6 0.8 0.7 2.7 2.6-0.6 0.3-1.4 0.5-2.9 1.1-3 1.1-6.3 2.3-3.3 1.1-6.6 2.2-3.3 1.1-6.3 2-3.2 0.9-5.7 1.7-1.3 0.4-2.5 0.6-1.3 0.4-2.2 0.5-1 0.2-1.8 0.4-0.9 0.2-1.4 0.2-0.6 0.1-0.9 0.1-0.8-0.2-0.1-0.2 0.3-0.4 1.1-0.6 1.7-0.6 3.7-1.6 0.9-0.4 1.6-0.8 0.8-0.4 1.4-0.8 0.6-0.3 0.9-0.6 0.4-0.3 0.3-0.3 0.1-0.2h-0.4l-1.6 0.4-0.5 0.1-0.9 0.1-0.6-0.5v-0.1l-0.1-0.4-0.1-0.2-0.4-0.5-1.5-1.9-0.4-0.4-0.5-0.7-0.2-0.3-0.2-0.6-0.1-0.3v-0.5l0.5-0.7 0.5-0.7 0.3-1.1v-0.5l-0.7-1-0.4-0.4-1.6-0.7-3.4-0.8-5.2-0.8 4-0.9 3-0.7 6.3-1.6 3.1-0.9 6.6-1.9 6.6-2 13.4-4.5 3.3-1.2 6.4-2.3 3.2-1.2 6.1-2.5 1.9-0.8zm14.6 16.4h-0.2l-0.3 0.1-0.6 0.2-0.8 0.3-2.2 0.8-1.1 0.5-2.9 1.2-2.9 1.2 2.3-1.1 3-1.2 1.8-0.8 0.8-0.3 1.5-0.5 0.5-0.2 0.9-0.2h0.2zm9.8-26.8l-0.4 0.1-2.1 0.7-1.3 0.5-2.7 1.1-1.5 0.6-1.1 0.5 0.8-0.4 2.2-1 1.1-0.5 2-0.7 1-0.4 1.6-0.5 1.2-0.2zm0.7-0.1l0.7-0.1h0.1z"/>
		<path id="Layer" fill-rule="evenodd" class="s2" d="m267.3 381.4l-1.8-0.3-0.3-0.1-0.8-0.3-0.4-0.1-1.1-0.5-0.6-0.2-1.4-0.6-0.7-0.4-1.6-0.7-1.6-0.8-3.7-1.8-2-1-4.1-2.2-4.2-2.2-8.5-4.6-2-1.1-3.6-2.2-4.7-2.8-1.3-0.9-2.4-1.7-1.1-0.8-1.8-1.4-0.8-0.6-1.1-1.1-0.6-1 0.1-0.4-0.2-1.4-0.7-2.2-0.1-0.4-0.3-1v-0.5l-0.2-1.1v-1.2l0.1-2.7 0.1-1.2 0.5-2.3 0.2-0.5 0.3-0.8 0.6-0.9 0.4-0.4 0.6-0.4h0.7l0.1 0.1 0.1-0.2v-0.4l-0.2-1.8-0.1-0.7-0.2-0.9v-0.3l0.2-0.3 0.1-0.1 0.5 0.3 1.4 1 0.2 0.1 0.5 0.4 0.3 0.2 0.9 0.6 0.9 0.6 2.4 1.7 1.3 0.9 3 2 4.9 3.2 1.6 1 3.2 2.1 1.5 1 2.6 1.8 0.7 0.4 1 0.8 0.6 0.3 0.8 0.6 0.4 0.3 0.6 0.5 0.6 0.4 0.4 0.3 1.1 0.7 1.3 0.6 0.4 0.1 1 0.5 1.4 1.1 0.4 0.4 1.2 0.7 1.8 0.4h0.2l0.4-0.1 0.2-0.1 0.3-0.5 0.1-0.4 0.2-1.2 0.1-0.7 0.1-2.1 0.1-0.6v-1.5-0.7l0.1-1.8v-0.9-2.1-1.1l0.1-2.6v-1.3-2.9-1.5-3.4-1.8 26.2l2.7-0.2h1.5l0.7 0.2 0.2 0.2 0.3 0.6 0.1 0.5 0.1 1.2v0.9l-0.2 2.8-0.1 0.7-0.1 0.3-0.2 0.4-0.1 0.1-0.3 0.7-0.1 1v0.7l-0.1 1.5v0.9l0.1 1.8 0.1 1 0.1 2.1v1.2l0.1 0.5v0.9 0.3l-0.1 0.6v0.2l-0.3 0.7-0.2 0.1h-0.5l-0.4-0.1-1-0.3-1-0.3-0.5-0.1-2.5-0.8-1.4-0.4-2.9-0.8-1.4-0.4-2.6-0.7-1-0.3h-0.3v0.1l0.6 0.5 0.6 0.3 1.3 0.8 1 0.6 2.1 1.1 1.2 0.6 3.7 1.9 2.4 1.2 1.1 0.5 2.1 0.9 0.8 0.3 1.5 0.6h0.4l1.8 0.4h0.9 1.8-1.8m-3.7-103.7l0.7 0.3 0.2 0.3v0.2 0.4l-0.1 0.3-0.2 0.6-0.2 0.4-0.5 1.3v0.4l0.2-0.2 0.2 0.1 0.1 0.3 0.1 0.2 0.2 1.2 0.1 0.8 0.1 2 0.1 1.2v2.5 1.4l0.1 4.7 0.1 3.5v1.9l0.2 3.6v1.7l0.2 3.3 0.1 1.4 0.1 3.6 0.1 1.7v0.6l-0.1 0.8v0.1l-0.1-0.1v-0.1l-0.1-0.3v-0.3l-0.7-4-0.7 5.5-0.3 2.3-0.1 1.9v1.1l-0.2 4.7-0.1 2.7v5.3l0.1 2.6v2.5l0.1 1.1v2.2l0.1 1v1.2 0.4l-0.2 0.9-0.1 0.2-0.3 0.5-0.2 0.2-0.4 0.1h-0.2l-0.4-0.2-0.3-0.2-0.4-0.4-0.3-0.4-0.4-0.7-0.2-0.5-0.4-1.1-0.1-0.6-0.2-1.3v-1.4l-0.1-0.9v-2.1l-0.1-1.3v-2.6-1.5l-0.1-3.1v-1.7-3.4-1.8-7.5-3.8l0.1-7.6v-3.6-3.6l0.1-1.7v-3.2-1.5l0.1-2.8v-1.2l0.1-2.3v-0.9l0.1-1.7 0.1-0.6v-0.9l0.1-0.2 0.8-2 0.6-1 0.4-0.4 0.6-0.5 0.4-0.1 0.8-0.1zm3.5 5.9l0.1 0.2 0.1 0.6 0.1 0.5v1.2l-0.1 0.7-0.1 3.4-0.2 1.8-0.2 1.7-0.1 0.9-0.2 1.5-0.1 0.6-0.2 1.1-0.1 0.3-0.3 0.5v-0.1l-0.4-1-0.2-1v-0.7l-0.2-3.2v-1.7l0.1-1.8v-0.8l0.1-1.6 0.1-0.7 0.2-1.2 0.1-0.4 0.2-0.7 0.1-0.1 0.8-0.2zm27.8-2.9l1.3 1-1.4-1-2.2-1.9zm1.4 1l0.3 0.2 0.6 0.3-0.6-0.3zm2 1.3l0.8 0.4 1.5 0.8-1.5-0.8-0.8-0.4-1.1-0.7zm-15.4-17.5l0.1 0.3-0.1-0.1zm0.5 1.3l-0.4-1v-0.1zm-0.6-1.8l-0.1-0.2 0.2 0.8zm-0.5-2.5l0.5 2.1-0.5-1.6-0.1-0.9zm-1.2-10.1l0.1 1.4 0.4 4.8-0.3-1.9-0.4-6.2zm-9.5-19.2l-2 0.1-0.7 0.1-1.4 0.2h-0.4l-0.7 0.3-0.1 0.1-0.1 0.2 0.2 0.2 0.5 0.3 0.5 0.1 1.2 0.3 0.9 0.2 1.8 0.3 1.2 0.2 3.4 0.6 0.8 0.2 0.3 0.1 0.3 0.2 0.1 0.1 0.3 2.3 0.3 1.3 0.2 0.6 0.3 0.9 0.2 0.4 0.5 0.6 0.2 0.1 0.4 1 0.4 1.4 0.1 1 0.3 2.1 0.2 0.9-6.5-0.2-1.8-0.1-3.4-0.2-0.8-0.1-1.3-0.2h-0.3l0.7 0.1 1.6 0.1h0.9l1.8 0.1h0.9l3.2-0.1 1.5-0.1 0.5-0.1 0.9-0.2 0.2-0.1 0.2-0.4-0.1-0.2-0.6-0.6-0.9-0.2-0.6-0.1-1.4-0.2-0.9-0.1-2-0.1h-8.5l-5.1-5.8-1.4-1.6-0.8-0.9-0.3-0.4-1.1-1.4-0.2-0.5-0.4-0.9v-0.3l0.2-0.5 0.3-0.2 0.6-0.5 0.2-0.1 0.9-0.1h0.7l1.7-0.1h0.9l1.9-0.1 6.7-0.1h16.7l-10.4 0.1zm-18.1 2.8l0.5 0.7 1.1 1.5 0.6 0.8 1.4 1.6 0.7 0.8-0.4-0.4-1.5-1.7-0.7-0.8-1.1-1.5-0.6-0.7-0.7-1.1-0.5-1.2 0.5 1zm18.3-24.6l-0.9 1.1-1.5 1.6-0.4 0.3-0.6 0.6-0.7 0.4-0.2 0.1 0.1-0.1 0.8-0.4 0.6-0.6 0.4-0.3 1.5-1.6 0.9-1.1 0.5-0.6zm-8 1l0.7 0.8-0.6-0.6-0.3-0.4zm14.5-78.4l0.2 3.9v3.1l-0.1 0.7-0.1 0.3-0.2 0.5-0.1 0.1v1l0.6 1 0.4 0.5 0.9 1.3 0.1 0.3v0.1l-0.1 0.2h-0.2l-0.7 0.6-0.3 0.8-0.1 0.6 0.3 1.1 0.3 0.3 0.3 0.1 0.8 0.1 0.5 0.1 1.2 0.1h0.8l1.7 0.1h1.2l2.5 0.1h1.5 3.3-15.6v18.7l-0.1-2.3v-1.3l-0.1-2.5v-1.1l-0.1-2.2v-0.9l-0.1-1.7-0.1-0.7-0.1-1.1-0.1-0.4-0.1-0.5h-0.1l-0.4 0.6-0.2 1.1-0.1 0.8-0.2 1.8-0.1 1.1-0.2 2.3v1.4l-0.1 2.8-0.1 1.6-0.1 3.2v1.7 7l0.1 3.6 0.1 5.2v3 1.3l-0.1 2.6-0.1 1.1-0.2 2.1-0.1 0.9-0.3 1.8-0.2 0.7-0.4 1.5-0.3 0.6-1.2 2.4-0.8 1-2.3 2.4-0.8 0.6-0.3 0.2-0.7 0.3h-0.2l-0.8-0.1-0.7-0.4-0.4-0.3-1.6-1.5-0.9-1-1.8-2.1-0.8-1.1-1.4-2.3-0.4-1.1-0.5-1.2-0.1-0.3-0.9-48.8-15-1 0.3-7v-1l0.2-1.8 0.1-0.9 0.2-1.6 0.2-0.8 0.2-1.1 0.5-1.1 0.1-0.2 0.7-0.3 0.5-0.1 1.1-0.3 0.7-0.1 1.6-0.1 2.7-0.1h6.4v-45.1l-0.1-1.7v-3.3-1.6-3-1.4-2.7-1.2-2.4l-0.1-1.1v-2.1-2l-0.1-3.3-0.1-1.5-0.1-2.3v-1l-0.2-1.5-0.1-0.6-0.2-0.8-0.3-0.4h-0.2l-0.9 0.3-0.5 0.1-1.5 0.6-0.7 0.3-1.9 0.7-2.9 1.3-7.4 3.2-2.9-2.7-0.8-0.7-1.2-1.6-0.3-0.4-0.3-0.7-0.2-0.8v-0.5l-0.8-1-1.7-1.3-0.7-0.3-1.1-0.7-0.7-0.9v-0.3l0.6-1 0.4-0.5 1.2-1.1 0.6-0.5 1.1-0.9 1.4-0.6h0.2l0.3-0.6-0.1-1.3-0.1-0.3 0.1-0.6v-0.3l0.4-0.5 0.2-0.2 0.8-0.5 1.7-0.7 0.3-0.1 0.7-0.3 0.4-0.1 0.9-0.4 1.1-0.4 2.5-1.2 1.4-0.6 3-1.4 4.8-2.1 1.5-0.8 3.1-1.3 1.5-0.7 2.7-1 1.3-0.5 2.1-0.7 0.5-0.1 0.7-0.2 0.8-0.1h0.4l1.4 0.3 0.7 0.2 1.9 0.6 1 0.4 2.1 0.9 3.3 1.6 4 2-1.4-0.6-0.6-0.3-1.2-0.4-0.2-0.1-0.4-0.1 0.1 0.1 0.3 0.3 0.5 0.3 0.9 0.6 0.8 0.5 1.5 0.9 1 0.6 6.2 3.9 1.8 1.2 0.9 0.5 1.6 1.2 0.7 0.5 1.3 1 0.6 0.4 1 0.9 0.4 0.3 0.7 0.7 0.2 0.2 0.4 0.5v0.1l-0.4 0.4h-0.5l-0.3-0.2-0.7-0.2-0.1 0.5 0.2 0.6 0.2 1.3-0.3 0.8-0.3 0.1-0.3 0.6-0.2 0.5v0.4l-0.1 1.7 0.1 0.9 0.2 2v0.8l-0.2 0.1-0.4 0.3-0.5-0.1-0.9-0.1-0.8-0.2-2.4-0.5-1.4-0.3h-0.3l-1.2-0.4-1-0.4-0.3-0.3-1.9-0.7-1.8-0.3-0.8-0.1-3.1-0.4 3.5 2 3.1 1.5 2.7 1.3 1.6 0.6 3.3 1.4 1.9 0.7 3.8 1.5 2 0.8 8.2 3 4 1.4 4 1.3 1.8 0.6-1.4-0.5-3.8-1.2-3.7-1.3-7.5-2.6-1.9-0.7-3.4-1.4-1.7-0.6-3.2-1.3-1.5-0.6-2.7-1.2-3.3-1.5-1-0.6-2.4-1-0.5-0.2-1-0.4-1.2-0.5-2.2-0.7v73.5l-0.1-1.8-0.1-0.9v-0.4l-0.2-0.6v-0.2l-0.2-0.2-0.1 0.1-0.6 1.4-0.3 1.5-0.1 0.9-0.1 1.7v0.7l0.2 1.3 0.1 0.3 0.5 0.7 0.2 0.1h0.3l0.1-0.3 0.2-0.8 0.1-0.7 0.1-1.6v5.5zm41.5-63.9l0.4 0.1 2.1 0.7-2.4-0.8zm-43.2 133.1v-0.8l0.2-1.7v-1l0.1-2.1 0.1-1.2 0.1-2.5v-1.4l0.1-2.8v-1.4l0.1-5.1v0.2 1.9 3.5l-0.1 1.7v3l-0.1 1.4v2.4l-0.1 1.2-0.1 1.9-0.1 0.9-0.1 1.5-0.1 0.7-0.1 0.9-0.3 0.9 0.2-1zm84.1-11h0.1zm0.2 0.2h0.3l-0.2 0.1h-0.1l-0.2-0.2zm-0.3-0.3l-0.2-0.2 0.3 0.4zm-0.4-0.5zm-13.9-20.2l1.2 1.9 0.7 1.1 1.6 2.5 0.8 1.2 1.8 2.7 1 1.4 1.8 2.6 0.8 1.3 1.7 2.2 0.7 1 0.8 1.1-0.5-0.7-0.8-1-1.6-2.2-0.9-1.3-1.8-2.7-1-1.3-1.8-2.8-0.9-1.3-1.6-2.5-0.7-1.1-1.3-2-0.3-0.7zm52.5-7l-7.4 5.7 7.4-5.7 0.5-79.2-0.2 39.6zm-52.7 4l-0.5 0.4-0.3 0.6v-0.1l0.3-0.5 0.5-0.4 0.4-0.2 1.8-0.9-1.8 0.9zm-127.8-61.9l0.3 0.1 0.9 0.3 0.4 0.3 1.1 0.6 1.1 0.7 2.5 1.9 3.8 3.6 0.8 0.9 1.5 1.8 0.7 0.9 1.1 1.9 1.2 2 1.5 4.2 0.7 2.1 0.7 4.4 0.2 2.2-0.3 4.5-0.2 2.2-1.1 4.3-0.7 2.1-2 4.1-1.1 2-2.8 3.5-0.8 0.9-1.7 1.6-2.7 2.2-0.7 0.5-0.9 0.6-0.4 0.2-0.6 0.1h-0.2l-0.4-0.3-0.2-0.3-0.6-0.8-0.3-0.5-1.1-0.8-1.7-0.6h-0.7l-1.1-0.4-0.4-0.2-0.4-0.7-0.1-0.4 0.4-1 1.2-1.8 0.5-0.4 0.6-0.8 0.2-0.4 0.3-0.6 0.1-0.4-0.1-0.6-0.4-1-0.2-0.4-0.1-0.7-0.1-0.4 0.2-0.9 0.2-0.5 0.5-1.1 1.4-2.3 0.5-0.7 0.9-1.7 0.3-0.8 0.6-1.9 0.6-1.9 0.4-4.2 0.1-2.1-0.6-4.3-0.2-1-0.6-2.1-1.1-2.9-0.5-1.1-0.9-2-0.2-0.4-0.2-0.7-0.1-0.7v-0.2l-0.5-0.9-1.2-1.6-0.4-0.4-0.5-0.6-0.2-0.3-0.1-0.5v-0.3l0.3-0.5 0.9-1 0.5-0.5 0.7-1.2 0.5-1.4v-0.2l0.2-0.3 0.2-0.1zm39.9 97.6l0.4 0.8 0.9 1.5 0.5 0.8 1.1 1.7 0.6 0.9 1.1 1.4-0.8-1-4.2-5.6-0.1-1.6zm-35.5-92.6v0.3l0.3 0.9 0.2 0.5 0.6 0.9 0.9 1.1 0.4 0.2 0.4 0.3 0.2 0.1h0.2 0.1v-0.5-0.2l-0.1-0.9v-0.4l-0.3-0.8-0.1-0.4-0.5-0.6-0.3-0.3-0.6-0.5-1-0.2h-0.3zm130-32.9l5.7 1-5.7-1-4.2-1zm34.8-15.2l-7.3-0.9-2.8-0.4zm-16.1-2.2l3.3 0.5-8.8-1.4-4.7-0.9-0.4-0.1zm3.3 0.6l0.8 0.1h0.3zm-19.7-3.6l4 0.9-7.4-1.5-4.7-1.2-1.5-0.3zm-16.4-3.9l2.8 0.7-3.9-1-4.7-1.3-1.3-0.4zm-14.6-4.1l-0.5-0.2-0.5-0.1zm64 13.4l16.1 1.4-14.2-1.2zm-103.7 204.8l-0.4-0.7m99.7-183.9l3 0.4 5.6 0.5-5.6-0.5"/>
		<path id="Layer" fill-rule="evenodd" class="s3" d="m275.4 265.6l0.2 0.1 0.3 0.4 0.1 0.2 0.3 1 0.1 0.6 0.1 1.7 0.1 0.5v1.3l0.1 0.6v1.5l0.1 0.7v1.8 1l0.1 2.1v1.1 2.5 1.3l0.1 2.9v1.5 3.3 1.7 3.8 2 4.3 10 5.8 2.9 5.5l0.1 2.6v4.9 2.4l0.1 4.3v2l0.1 3.5v1.6l0.1 2.6v0.5l0.1 1v0.5 0.7 0.3l0.1 0.4v0.3l0.1 0.1 0.8-0.1 0.4-0.1 1.3-0.5 0.7-0.3 1.8-0.9 0.9-0.4 2.2-1.2 1.1-0.6 2.5-1.3 1.2-0.8 2.7-1.5 5.3-3.4-1.4 1-0.7 0.5-1.3 1-0.3 0.3-0.6 0.6h0.1 0.4l0.5-0.1 0.3-0.2 1.5-0.8 0.9-0.6 1.5-0.9 1.3-0.6 0.6-0.2 2.7-0.8 1.2-0.2 1.9-0.2h0.8l0.3 0.1 0.2 0.1v0.1l-0.2 0.3-0.3 0.2-0.6 0.5-0.3 0.2v0.1l0.1 0.2h0.1l0.3 0.1h0.2l1.3 0.5 1.1 0.6 0.5 0.5 0.9 0.9 0.4 0.4 0.6 0.9v0.4l0.4 1 0.4 1.3v1.1 0.6l-0.2 1.3-0.2 0.6-0.4 1.1-0.3 0.4-0.9 1-0.4 0.2v-0.2l-0.1-0.2-0.3 0.1-0.1 0.1-0.8 0.7-0.4 0.5-1.7 1.6-1.5 1.2-1 0.6-2.1 1.3-1.3 0.8-2.8 1.5-1.6 0.9-2.3 1.4-0.6 0.5-0.1 0.2-0.3 0.3v0.1l0.1 0.4 0.1 0.1h0.1l-0.4 0.3-4.4 2.4-2.2 1.2-4 2.1-1.9 1-3.4 1.6-1.7 0.8-2.7 1.1-0.6 0.3-1.1 0.4-1.4 0.4-0.5 0.1h-1.8-0.9l-1.8-0.4h-0.4l-1.5-0.6-0.8-0.3-2.1-0.9-1.1-0.5-2.4-1.2-3.7-1.9-1.2-0.6-2.1-1.1-0.9-0.6-1.4-0.8-0.6-0.3-0.6-0.5v-0.1h0.3l1 0.3 2.6 0.7 1.4 0.4 2.9 0.8 1.4 0.4 2.5 0.8 0.5 0.1 1 0.3 1 0.3 0.4 0.1h0.5l0.2-0.1 0.3-0.7v-0.2l0.1-0.6v-0.4-0.8-0.5l-0.1-1.2-0.1-2.1-0.1-1-0.1-1.8v-0.9l0.1-1.5v-0.7l0.1-1 0.3-0.7 0.1-0.1 0.2-0.4 0.1-0.3 0.1-0.7 0.2-2.8v-0.9l-0.1-1.2-0.1-0.5-0.3-0.6-0.2-0.2-0.6-0.2h-1.5l-2.8 0.2v-74.2l5.5-6.7 0.7-0.9 1.3-1.4 0.6-0.7 1.1-1.1 0.6-0.6 1-0.9 0.5-0.4 1-0.6 0.9-0.6 1.8-0.5m-9.6 12.3l-0.4 0.1-0.6 0.5-0.4 0.4-0.6 1-0.8 2v0.2l-0.1 0.9-0.1 0.6-0.1 1.6v1l-0.1 2.3v1.2l-0.1 2.8v1.5 3.2l-0.1 1.7v3.5 3.6l-0.1 7.7v3.8 7.5 1.8 3.4l0.1 1.7v3.1 1.5l0.1 2.6v1.3 2.1l0.1 0.9v1.4l0.2 1.2 0.1 0.7 0.4 1.1 0.2 0.5 0.4 0.7 0.3 0.4 0.4 0.4 0.3 0.2 0.4 0.2h0.2l0.4-0.1 0.2-0.2 0.3-0.5 0.1-0.2 0.2-0.9v-0.4-1.2-1l-0.1-2.2-0.1-1.1v-2.5l-0.1-2.6 0.1-5.4v-2.6l0.2-4.7v-1.1l0.1-1.9 0.3-2.3 0.7-5.5 0.7 4v0.3l0.1 0.3v0.1l0.1 0.1v-0.1l0.1-0.8v-0.6l-0.1-1.7-0.1-3.6-0.1-1.4-0.2-3.3v-1.7l-0.2-3.6v-1.9l-0.1-3.5-0.1-4.7v-1.5-2.5l-0.1-1.1-0.1-2-0.1-0.8-0.2-1.2-0.1-0.2-0.1-0.3-0.2-0.1-0.2 0.2v-0.4l0.5-1.3 0.2-0.4 0.2-0.6 0.1-0.3v-0.4-0.2l-0.2-0.3-0.6-0.3-0.4-0.2zm73.7 63.8l-3.1 2.5-3.6 2.6 5.1-3.8 3.1-2.5zm8.8-7.5l-2.8 2.5-4.3 3.6 11.6-10.2zm-11.4-16.5l-3 2.6-6 5.2-3.2 2.5-6.3 4.9-3.4 2.3-3.7 2.6 3.6-2.5 3.5-2.5 6.6-5.1 3.2-2.5 6.1-5.2 3-2.7 1.4-1.4zm19.7 8.7l-2.7 2.7-0.2 0.2 3.2-3.1zm13-14.3l-0.3 0.4 1.2-1.4 1.6-2zm7.5-9.5l-1 1.3 2.7-3.7zm-107.9-18.7l-0.2 0.1-0.2 0.7-0.1 0.4-0.2 1.2-0.1 0.7-0.1 1.6v0.8 1.8l-0.1 1.7 0.2 3.2 0.1 0.7 0.1 1 0.4 1 0.1 0.1 0.2-0.5 0.1-0.3 0.2-1.1 0.1-0.6 0.2-1.5 0.1-0.9 0.2-1.7 0.2-1.8 0.2-3.4v-0.7-1.2l-0.1-0.5-0.1-0.6-0.1-0.2-0.4-0.2zm115.4 8.5l-1.8 2.4 2.5-3.4zm-24.5-74.8l-0.2 0.1-0.7 0.3-0.6 0.4-2 1.2-1 0.7-2.4 1.6-1.2 0.8-2.6 1.8-1.3 0.9-2.5 1.8-1.2 0.8-2 1.5-1 0.8-1.3 1.1-0.3 0.2-0.4 0.4-0.2 0.3v0.1l0.2 0.4 0.2 0.3 0.4 0.8 1.8 2.8v0.1l-1.2-1.7-0.6-0.5-0.6-0.5-0.2-0.1-0.5-0.2-0.2 0.1-0.7-0.1-0.1-0.5 0.2-0.4 0.1-1-0.3-0.5h-0.3l-0.8 0.5-0.6 0.7-0.2 0.4-0.8 1-0.8 0.3-0.3-0.2-0.8-0.1-0.4 0.3-0.1 0.3-0.2 0.8-0.1 0.7-0.1 1.4-0.1 1-0.2 0.8-0.4 0.3-0.3 0.1-0.8 0.1h-0.6-1.3l-0.8-0.1-4.5-0.5 2 2-0.2-0.2-1.7-1.1-0.8-0.5-1.9-0.7-1-0.3-2-0.4-1.1-0.1h-2.2l-3.6 0.7-0.9 0.2-1.6 0.7-0.8 0.4-1.4 0.9-0.7 0.4-1.2 1.1-0.6 0.6-1 1.3-0.9 1.3-1.3 3-0.6 1.5-0.4 3.2-0.1 1.6 0.4 3.3 0.4 1.6 1.3 3 0.4 0.7 0.9 1.3 0.5 0.7 1.2 1.2 0.6 0.6 1.4 1 2.3 1.3 1.3 0.6 2.2 0.7 1.1 0.3 2 0.2h1l2.1-0.5 1.1-0.2 2.4-1.1 1.2-0.5 2-1.3 0.5-0.3h-0.1l-2.3 1.9-1.4 0.7-0.9 0.6-0.2 0.3 0.1 0.1 0.3 0.1h0.4 1.1 0.7 1.8l0.7 0.1 0.3 0.2 0.4 0.3v0.2l0.1 0.5-0.1 0.4 0.3 1.7 0.7 1 0.4 0.4 1.4 1.5 0.5 1.3v0.5 1l-0.2 0.3-0.3 0.2-0.2 0.1h-0.4l-0.3-0.1-0.9-0.2-0.1 0.2 0.2 0.2 0.2 1-0.3 0.8-0.3 0.4-0.4 0.5-0.1 0.2-0.2 0.3 0.1 0.1 0.1 0.2-0.7 0.2-0.9 0.3-2.1 0.4-2.1 0.4-4.5 0.4-2.2 0.1-4.3-0.3-1-0.1-1.9-0.3-0.9-0.2-1.5-0.5-0.7-0.2-1.6-0.8-0.8-0.5-1.6-1.1-1.7-1.1-3.4-2.9-1.6-1.6-2.9-3.2-0.6-0.8-1.2-1.6-1.3-2.3-0.4-0.8-0.6-1.9-0.4-0.9-0.5-2.3-0.2-1.2-0.4-2.7-0.5-4.8-0.1-1.4-0.3-2.5-0.1-1.3-0.3-2-0.2-1-0.3-1.4-0.5-1-0.2-0.2-0.4-0.5-0.2-0.4-0.4-1-0.1-0.5-0.3-1.3-0.4-2.3v-0.1l-0.4-0.2-0.3-0.1-0.7-0.2-3.4-0.7-1.2-0.1-1.9-0.3-0.8-0.2-1.2-0.3-0.6-0.2-0.5-0.2-0.2-0.2 0.1-0.2 0.1-0.2 0.7-0.2 0.5-0.1 1.3-0.1 0.8-0.1 1.9-0.1 3.6-0.1h10.4l6.8-4.6 2-1.4 4-2.1 2-1 4-1.3 2-0.5 4.1-0.5 6.4 0.1 6 0.6 6.5-5-0.7 0.6-1.8 1.4-0.6 0.5-1.2 1-0.3 0.4-0.7 0.7-0.1 0.2-0.2 0.4 0.1 0.1 0.3 0.2 0.3 0.1h0.6 0.4 1.9l1.2 0.1 0.2 0.1h0.9l0.2-0.1-0.1-0.1-0.5-0.3-0.2-0.3-0.6-0.6-0.3-0.4-0.7-0.9-0.2-0.3v-0.1l0.2 0.1 0.2 0.1 0.5 0.4 0.4 0.3 1.2 1.1 0.5 0.5-0.2 0.3-0.2 0.2h0.3 0.1v-0.4-0.1l0.8-1.4 0.5-0.7 0.3-0.2 0.6-0.4 0.3-0.1 0.5-0.1h0.3l0.5 0.2 0.2 0.2 0.3 0.5 0.2 0.3 0.2 0.7v0.5 1l-0.1 0.6-0.1 2.5 0.1 0.7 0.1 0.2 0.2 0.4 0.1 0.1 0.7 0.8 0.3 0.6v0.3l-0.4 0.2-0.7-0.4-0.4-0.4-1.3-1.1-0.5-0.4h-0.2l-0.2 0.1 0.1 0.3 0.1 0.7 0.2 0.5 0.2 1-0.2 0.2-0.3-0.1-0.7 0.1-0.4 0.7v0.6l-0.1 1.1 0.1 0.4 0.2-0.1 0.2-0.2 0.4-0.5 0.3-0.4 1.3-1.1 0.9-0.2 0.3 0.3h0.4l0.5-0.1 0.3-0.2 1.5-0.6 1-0.6 2.1-1.3 1.3-0.8 2.6-1.8 1.5-1 4-2.7 2.4-1.6 1.1-0.7 1.8-1.1 0.7-0.4 0.6-0.3 0.2-0.1 0.2-0.1zm-16.5 51.7l-0.1 0.2 0.3-0.6zm3.6-17.2l0.1 1.8-0.2 3.5-0.1 1.8-0.8 3.5-0.5 1.7-0.4 1 1.3-4.8 0.5-3.8 0.1-1.8-0.1-3.3zm-17.9-6.1l1.3 2.4 0.4 1.2 0.6 2.5 0.1 1.3v2.5l-0.1 0.4 0.1-1.6v-1l-0.3-2-0.2-0.9-0.6-1.9-0.3-0.9-0.9-1.8-0.2-0.4zm-71.4-12.5l0.6 0.1h0.3l0.2 0.1v0.1l-0.1 0.2-0.6 0.4-0.3 0.2-0.2 0.6-0.1 0.3 0.4 0.8 0.3 0.5 1 1.5 0.4 0.3 0.7 1 1.4 1.6 5.1 5.8h8.5l2 0.1h1l1.4 0.2 0.6 0.1 0.9 0.3 0.6 0.5 0.1 0.3-0.3 0.3-0.2 0.2-0.8 0.2-0.5 0.1-1.5 0.1h-3.2-1l-1.8-0.1h-0.9l-1.5-0.1h-0.8l-1.1-0.2h-0.5l-0.5-0.2-0.2-0.1-0.8-0.6-0.5-0.4-1.1-1.2-0.6-0.7-1.4-1.5-0.7-0.8-1.4-1.6-0.8-0.9-1.3-1.6-0.7-0.8-1.1-1.5-0.5-0.7-0.7-1-0.5-1v-0.2l0.7-0.4 1.6-0.3zm88.8 15.1l0.1 0.2-0.1-0.4zm-2.3-6.9l0.8 1.7 0.1 0.3-0.9-2.2zm-1.7-3.3l0.4 0.8-0.5-1zm-63.3-82.3l0.1 0.3 0.1 1.2 0.1 0.6 0.1 1.8v0.9l0.1 2.1v1.2l0.1 2.5v1.3 2.8l0.1 2.8-0.1 6.1v3.1l-0.1 6v1.4l-0.1 2.8v1.4l-0.1 2.5-0.1 1.2-0.1 2.1v1.1l-0.2 1.6v0.8l-0.2 1.2-0.2 1-0.5 0.8-1.4 2.1-0.8 1-1.7 2.2-0.8 1-1.6 1.6-0.3 0.4-0.7 0.5-0.7 0.4-0.2 0.1-0.7-0.2-0.4-0.2-0.9-0.8-0.5-0.5-1.2-1.3-0.6-0.8-1.4-1.8-0.6-0.8-1.1-1.7-0.6-0.9-0.8-1.5-0.4-0.8-0.6-1.2-0.3-1.3v-0.5l0.1-0.7v-0.2l0.1-0.1h0.1l0.2 0.4 0.5 1.3 0.4 1 1.4 2.3 0.8 1.2 1.8 2.1 0.8 1 1.7 1.5 0.4 0.3 0.7 0.3 0.8 0.2h0.2l0.6-0.4 0.4-0.2 0.7-0.6 2.4-2.4 0.8-1 1.2-2.3 0.2-0.6 0.5-1.5 0.2-0.8 0.3-1.7 0.1-0.9 0.2-2.2 0.1-1.1 0.1-2.5v-1.3-3.1l-0.1-5.2-0.1-3.6v-7-1.7l0.1-3.2v-1.5l0.1-2.9 0.1-1.3 0.2-2.4 0.1-1.1 0.1-1.8 0.2-0.8 0.2-1 0.4-0.7h0.1zm71.4 46.7l0.2 0.3-0.3 0.3-0.4 0.3-0.3 0.3-0.6 0.6-0.5 0.3-0.9 0.7-0.5 0.5-2.4 1.8-1.4 1.1-3 2.3h-0.1l2.7-2 1.5-1.2 2.5-2 0.5-0.5 1-0.8 0.4-0.4 0.7-0.6 0.3-0.3 0.4-0.4 0.2-0.3zm-5-98.7l4.4 0.5 0.9 0.2h-0.1l-0.3 0.2 0.1 0.1 0.1 0.4 0.2 0.2 0.6 0.6 0.5 0.4 1 0.7 0.7 0.5 1.5 1.1 0.9 0.7 0.3 0.4 0.6 0.6 0.1 0.3 0.2 0.4-0.1 0.2v0.6l0.3 0.3h0.4l0.3 0.2v0.2l-0.1 0.2-0.6 0.9-0.6 0.6-1.1 1.1-0.4 0.6-0.1 0.2v0.6 0.2l0.2 0.5 0.3 0.3 0.3 0.6-0.1 0.3-0.2 0.1-0.7 0.1-0.5-0.1h-1.3l-1-0.1-1.7-0.1h-1-0.3l-0.7 0.1h-0.2l-0.4 0.2-0.1 0.1-0.1 0.2 0.1 0.1 0.2 0.3 0.2 0.2 0.5 0.3 0.4 0.2 0.8 0.4 0.6 0.2h0.1l-2.9-1.1-1.5-0.4-3.1-0.3h-1.6l-3.1 0.7-0.8 0.3-1.5 0.6-0.8 0.4-1.4 0.9-0.7 0.5-1.3 1.2-1.9 2.1-0.6 0.8-0.9 1.4-0.4 0.6-0.4 1.4-0.3 0.7-0.2 1.8-0.1 3.3v1.8l0.4 2.8 0.2 1.4 1 2.3 0.6 1 1.8 2 3.6 3 0.7 0.5 1.3 0.6 0.6 0.3 1.4 0.4 0.6 0.1 1.7 0.1 3.4-0.1 1.3-0.1 2-0.2 0.9-0.1-0.8 0.4-0.3 0.3-0.4 0.7v0.4 0.9l0.3 0.4 0.3 1 0.1 0.9v0.5 2.2l-0.2 1-0.2 1.6-0.1 0.9 0.1 0.3v0.6l0.1 0.2 0.2 0.3h0.1l0.2 0.5-0.4 0.7-0.4 0.4-1.1 1.3-0.5 0.7v0.1l0.1 0.3h0.3l0.5 0.1h0.3l0.9-0.1 0.5-0.1 1-0.2 0.6-0.2 2.6-0.6 0.8-0.3-1.3 0.5-1.2 0.3-1.8 0.9-0.4 0.2-0.5 0.4-0.4 0.5v0.1l0.2 0.4 0.1 0.3 0.3 0.6 0.4 0.7 1.3 2.1 0.7 1 1.6 2.6 0.9 1.3 1.8 2.7 0.9 1.4 1.9 2.7 0.9 1.2 1.2 1.7-1.2-1.6-0.9-1.3-1.9-2.8-1-1.5-3-4.2-1.9-2.6-0.8-1-1.5-1.9-0.5-0.6-0.5-0.6-0.2-0.2-0.3-0.3h-0.1l-0.7-0.2-0.2 0.1v0.1l0.1 0.3 0.2 0.3 0.4 0.6 0.3 0.5 1.1 1.9 0.4 0.9v0.3l-0.1 0.3-0.3-0.1-0.3-0.2-0.2-0.2-0.4-0.4-0.2-0.3-0.9-1.1-0.3-0.3v0.2l0.1 0.2 0.3 0.7 0.3 0.6 1.1 1.5 0.8 0.5h0.3l0.8 0.3 0.5 0.8 0.1 0.5 0.7 1.8 0.7 1.3 0.4 0.4 1 1.6-0.1 0.8-0.3 0.4-0.5 1.5v1.4l0.1 0.7 0.3 1.4 0.3 0.4 0.3 0.3 0.1 0.1 0.3 0.1 0.2-0.1 0.7-0.1 0.6 0.3 0.1 0.3v0.7l-0.5 0.3h-0.5l-0.8 0.1-0.3 0.1v0.1l0.1 0.2 0.1 0.2 0.4 0.5 0.4 0.3 0.8 1.4 0.2 1.2-0.1 0.6-0.2 1.2-0.2 0.5-0.6 1-0.4 0.2-1.4-0.1-1.1-0.6-0.5-0.5-0.9-1.1-0.3-0.5-0.4-1 0.1-0.4v-0.8l-0.4-0.1-0.4 0.1-1.1-0.3-0.7-0.7-0.3-0.5-0.5-1.2-0.1-0.6-0.2-1.1 0.2-0.5-0.2-0.4-0.5 0.1-0.3 0.2-0.8 0.2v-0.5l0.2-0.6 0.2-1-0.4-0.3-0.4 0.2-0.6-0.1-0.6-0.4-0.3-0.3-1.3-1.4-0.7-1-1.8-2.4-0.5-0.4-0.2-0.2-0.3-0.1v0.1 0.3l0.2 0.4 0.1 0.3 0.4 0.7 0.3 0.4 0.5 0.9 0.3 0.5 1.4 2.2-2.7-3.9-1.4-2-3-4-1.4-2-2.8-3.9-4-5.4-10.2-13.9h-18.5-3.2-1.6-2.4-1.2l-1.7-0.1h-0.8l-1.2-0.2h-0.6l-0.7-0.2-0.3-0.1-0.3-0.3-0.3-1.1 0.1-0.5 0.3-0.9 0.7-0.6h0.1l0.1-0.1 0.1-0.1-0.1-0.3-0.9-1.3-0.5-0.5-0.5-1v-1l0.1-0.1 0.2-0.5v-0.3l0.1-0.8 0.1-3-0.2-4h31v-3l0.2-1.3 0.1-0.7 0.4-1.4 0.5-1.6 1.3-3.3 0.8-1.7 1.8-3.2 3-4.1 0.6-0.7 1.4-1.3 0.8-0.7 1.7-1.4 0.9-0.6 1.8-1.2 2.5-1.5 1.2-0.6 2.1-0.8 0.9-0.4 2-0.5 0.9-0.2 2.3-0.2h4.3zm-6.2 82.5l0.1 0.1zm14.1-0.5l0.3 0.5v0.4l-0.1 0.8v0.3l-0.2 0.4h-0.1-0.3l-0.2-0.1-0.4-0.4-0.2-0.4-0.1-0.8 0.3-0.5 0.2-0.2zm6.9-22.3l-0.3 0.1 0.4-0.2zm9.2-8.5l-0.8 1.3-2.4 2.5-1.1 1.1 1.1-1.2 2.6-2.8 0.9-1.3zm-16.2-5.8l-0.8 0.8-0.9 0.7-0.3 0.2-0.7 0.3h-0.2l-1.5 0.3 1.3-0.4 0.7-0.2 1.1-0.7 0.6-0.4 1-0.9zm20.8-3.2l-0.4 1.4-0.5 1.1 0.7-1.8 0.4-1.3zm0.9-4.7v0.2-0.1zm-0.2 1.7l-0.2 0.8 0.1-0.5 0.3-1.9zm-15.3-9.3l0.1 1 0.2 2-0.1 1-0.2 2-0.2 0.9-0.5 1.3-0.5 0.8 0.3-0.6 0.5-1.1 0.4-2.4v-4l-0.1-1-0.2-0.8zm-80.1-10.1l0.1 0.2 0.1 0.6 0.1 0.4v1l0.1 1.7v1.2l-0.1 1.6v0.7l-0.2 0.8-0.1 0.3h-0.4l-0.2-0.1-0.4-0.7-0.2-0.3-0.1-1.3-0.1-0.7 0.2-1.7 0.1-0.8 0.3-1.6 0.6-1.4v-0.1zm73.5-1.6l1.4 1.2 0.6 0.6 1.2 1.5 0.3 0.5-0.6-0.8-1.1-1.3-2.5-1.9-1.2-0.8zm13.4-9.3l1.5 1.5 2.5 3.3 1.1 1.7 1.7 3.7 0.8 1.9 0.1 0.8-0.1-0.4-0.7-2.2-0.5-1-2.9-4.9-2.2-3-1.3-1.3-1.4-1.3zm-10.2-6.7l1.9 0.7 3.5 2.1 1 0.8-0.5-0.3-3.1-2-1.7-0.8-1.8-0.8zm-74.7-73.1l0.2 0.1 1.2 0.4 0.6 0.3 2 0.8 1.1 0.5 2.9 1.2 0.8 0.4 1.8 0.7 2.9 1.3 4.2 1.8 8.8 3.5 4.5 1.7 9 3.1 4.6 1.5 9.3 2.7 4.7 1.3 9.4 2.4 4.8 1.1 9.5 2 4.8 0.9 9.6 1.5 4.8 0.7 7.4 0.9-1-0.1-3.6-0.4-3.5-0.4-1.6-0.3-3.3-0.4-1.4-0.2-2.8-0.4-1.2-0.2-2.2-0.4-0.8-0.2-1.1-0.2h-0.5-0.1l-0.2 0.1 0.1 0.1 0.1 0.3 0.2 0.2 0.7 0.4 0.6 0.3 0.4 0.2 1.7 0.4 0.8 0.1 2.7 0.6 1.6 0.7 0.4 0.3 1.3 0.7 0.9 0.1 0.2-0.1h0.9l0.5 0.5 0.1 0.4v0.9l-0.3 0.7-0.3 0.4-0.6 0.9-0.5 0.5-1 1.1-0.6 0.5-1.7 1.7-0.8 1-0.3 0.5-0.5 0.9-0.1 0.3-0.2 0.8 0.1 0.3v1.5l-0.4 0.7-0.4 0.3-1 0.6-0.8 0.2-1.7 0.4-1.2 0.2-0.8 0.2-0.3 0.1v0.1 0.2h0.2l0.4 0.2 0.3 0.1 0.8 0.2 0.5 0.1 1.2 0.2 0.8 0.1 1.6 0.2 1 0.2 2.1 0.3 1.2 0.1 10.6 1.4 3.3 0.4 1.4 0.2 1.3 0.2h0.6l0.9 0.1h-0.4l-5.5-0.5-11.3-1.5-5.6-0.8-11.3-2-5.6-1.1-11.1-2.5-16.3-4.3-1.7-0.5-3.7-1.2-1.9-0.6-4.1-1.3-4-1.4-8.2-3-2-0.8-3.8-1.5-1.8-0.7-3.4-1.4-1.6-0.7-2.7-1.2-3.1-1.5-3.5-2 3.1 0.4h0.8l1.8 0.4 1.9 0.7 0.4 0.3 0.9 0.4 1.2 0.4h0.3l1.4 0.3 2.4 0.5 0.8 0.2 1 0.1 0.4 0.1 0.4-0.3 0.2-0.1v-0.8l-0.2-2-0.1-0.9 0.1-1.7v-0.4l0.2-0.5 0.4-0.6 0.2-0.1 0.3-0.8-0.1-1.3-0.3-0.6 0.1-0.5 0.7 0.2 0.3 0.2h0.5l0.4-0.4v-0.1l-0.3-0.5-0.3-0.2-0.6-0.7-0.4-0.4-1.1-0.8-0.5-0.4-1.4-1-0.7-0.5-1.6-1.2-0.8-0.5-1.9-1.2-6.2-3.9-1-0.6-1.5-1-0.8-0.4-0.9-0.6-0.5-0.3-0.3-0.3-0.1-0.1zm120.5 52.7l-0.5 79.2 0.3-39.7zm-3.5-21l-1.8-0.2-2.3-0.2 12.2 1-4.7-0.3z"/>
		<path id="Layer" fill-rule="evenodd" class="s4" d="m382.3 266.1l0.2 0.1 0.3 0.5 0.2 0.3 0.6 1.8 0.1 1.6-0.1 0.7 0.1 2.4 0.4 1.6 0.4 0.5 1.1 2.2 0.3 1.6v0.8l-0.2 1.6-0.3 0.7-0.8 1.3-0.6 0.5-1.4 1.9-0.6 1.5v0.7l-0.2 1.2-0.3 0.8-0.3 0.3-0.7 0.7-0.4 0.4-1 0.7-0.6 0.4-2.8 2.1-0.7 0.8-0.3 0.4-0.5 0.7-0.1 0.3-0.6 1.1-0.6 0.8-0.3 0.5-1.5 1.8-0.8 0.7-1.7 1.5-0.7 0.5-1.1 0.9-0.5 0.2-0.8 0.3h-0.3l-0.7-0.2-0.3-0.2-0.5-0.5-0.2-0.6-0.1-0.4-0.1-1.6 0.1-1.1 0.3-2.6 0.1-0.7 0.1-0.3v-0.5-0.1l0.3-0.2 0.5-0.2 0.3-0.1 1.5-0.2h1l2.5-0.3 0.5-0.2 0.2-0.1 0.3-0.2v-0.2l0.2-0.6 0.4-0.7 0.3-0.4 1.3-1.8 0.9-0.9 2-2.8 0.3-0.8 0.1-0.3 0.1-0.5-0.1-0.2-1.1-0.9-1-0.1-0.6 0.1-1 0.3-0.4 0.3-0.8 0.8-0.1 0.6-0.8 1.3-0.7 0.4-0.3-0.1-1.2 0.2-0.9 0.6-0.3 0.4-0.6 0.8-0.3 0.3-0.1-0.1v-0.2-0.5l0.1-0.4 0.6-1.8 0.8-1.3 0.5-0.5 1.2-1.6 0.5-1.1v-0.3l0.4-0.8 0.6-0.9 0.5-0.6 1-1.2 0.6-0.7 1.2-1.4 0.7-0.7 1.9-2.2 1.2-1.3 0.4-0.7 0.9-1.1 0.2-0.5 0.4-0.8v-0.2l0.3-1.6 0.4-1.1 0.3-0.4 0.6-0.8 0.3-0.2h0.1m34.6-18.9l0.9 0.1 1.4 0.4 0.7 0.2 1.3 0.7 2.2 1.6 0.9 0.7 1.5 1.4 0.7 0.8 1.2 1.5 0.5 0.7 0.8 1.6 0.4 0.8 0.5 1.7 0.2 0.8 0.2 1.7v0.9l-0.1 1.7-0.2 0.9-0.5 1.8-1.1 2.7-0.6 1.1-1.4 2.1-0.7 0.9-1.6 1.7-0.8 0.8-1.8 1.2-1 0.6-1.9 0.8-1 0.4-2.1 0.4-1 0.1h-2.1l-1.1-0.1-2.2-0.5-1.1-0.3-2.2-1-1-0.5-1.9-1.4-0.9-0.8-1.6-1.8-0.7-1-1.3-2.1-0.6-1.1-0.9-2.3-0.3-1.1-0.5-2.3-0.2-1.1 0.1-2.2v-1l0.6-1.9 1.4-2.4 0.7-0.6 0.9-1.3 0.2-0.2 0.3-0.5 0.2-0.4v-0.1l0.3-0.3 0.2-0.2 0.6-0.5 2.8-1.7 1.3-0.8 3-0.9 0.8-0.2 1.7-0.2 2.8-0.1h1.2zm-6.5-15.4l-0.1-0.1zm1.3-0.3h-0.2 0.2zm-2.6-0.2l-0.4-0.3zm4.2-1.2l-0.3 0.3 0.3-0.3zm-5.6-0.2v-0.1l-0.5-0.6zm9.2-136.8l0.1 0.2 0.1 0.5 0.1 0.5 0.1 1.1 0.1 0.7 0.2 3.9 0.1 1.3 0.1 0.5 0.1 1v0.3 0.6l0.1 0.6v0.5 1 0.6l0.1 1.4v0.8 1.6l0.1 1v2 1.1l0.1 4.6v2.7l0.1 5.6 0.1 3.2 0.1 6.4v3.5l0.1 7.1 0.1 3.7 0.1 7.6v3.9l0.7 57-3.8 4.8-1.9 2.2-1.1 1.1-0.4 0.3-0.9 0.6-0.4 0.2-0.8 0.1h-0.4l-1.4-0.6-0.5-0.6v-0.3l-0.2-0.7-0.4-0.7-0.2-0.4-1.5-2-0.9-1-1.5-1.5-0.7-0.7-0.3-0.2-0.5-0.3-0.1-0.1-0.2 0.1v0.1 0.4l0.2 0.3 0.3 0.7 0.3 0.5 0.7 1.1 0.4 0.7 0.1 0.1-2.7-4v-3.3 0.3l0.1 0.1 0.3-0.1 0.1-0.4 0.4-1.3 0.2-1v-0.6l0.2-2.6v-1.4l-0.1-2.7-0.1-1.3-0.2-1.1-0.1-0.5-0.2-0.9-0.2-0.4-0.3-0.2-0.2 0.6v0.6l-0.1 1.2-0.1-3.4v-1.8l-0.1-3.1v-1.5-2.4l-0.1-0.5v-0.8-0.9-0.9l-0.3-1.4-0.1-0.3-0.2-0.4-0.3-0.3h-0.1l-0.4 0.2-0.2 0.1-0.7 0.4-0.3 0.3-1 0.6-0.5 0.3-1.2 0.8-1.2 0.8-2.9 2-1.5 1-3.3 2.2-0.5 0.4 2.2-1.6 1.7-1.1 3.1-2.2 1.4-0.9 1.3-0.9 0.6-0.4 1.1-0.8 0.4-0.2 0.9-0.6 0.3-0.2 0.5-0.3h0.2l0.7-0.4 0.2-0.2v-0.1l-0.1-0.2-0.2-0.1-0.5-0.2-0.3-0.2-2.2-0.4-1.6 0.2-0.8 0.3-1.6 0.6-0.7 0.5-1.5 1.1-0.6 0.7-1.5 1.5-1 0.6-0.4 0.2-0.9 0.2h-0.3l-0.7-0.2-0.3-0.2-0.4-0.4-0.1-0.4-0.2-0.7 0.1-0.5 0.2-1 0.2-0.5 0.6-1.2 0.5-0.7 0.9-2.1 0.2-1.5-0.2-0.6v-1.9l0.4-1.4 0.4-0.6 0.7-1.1 0.4-0.2 0.4-0.2h0.2 0.4l0.1 0.2 0.4 0.1-0.1-0.3-0.2-0.3-0.2-0.9 0.1-0.4h0.3l0.6-0.2 0.6-0.3 0.3-0.2 1.5-1.1 0.8-0.7 1.5-1.4 0.9-0.7 0.4-0.3 1.2-1 0.4-0.3 0.6-0.3 0.3-0.1h0.3l0.2 0.2 0.3 0.1-0.1-0.2-0.1-0.2 0.1-0.9 0.5-1 0.5-0.5 0.8-1.6 0.2-0.9 0.1-0.6 0.2-1.2v-0.8l0.2-1.6v-1l0.2-2.1v-1.3l0.1-2.6 0.1-1.6 0.1-3.3v-1.9l0.2-5.2 0.1-3 0.1-1.3 0.1-2.5 0.1-1.1 0.1-2 0.1-0.8 0.2-1.6 0.1-0.7 0.2-1.3 0.1-0.5 0.6-2 0.4-0.8 0.9-2.4 0.3-1.4 0.1-0.8v-1.6-1l-0.3-2.2-0.1-1.5-0.3-2.1-0.2-1.2v-0.5l-0.1-1.7 0.1-0.7 0.3-1.2 0.3-0.5 0.7-1.1 0.5-0.7 1.8-2 0.6-0.5 0.2-0.2 0.3-0.2h0.2l0.3 0.2 0.2 0.5 0.2 0.4 0.4 1.7 0.2 1 0.4 1.8 0.3 0.9 0.2 0.3 0.4 0.5 0.2 0.1h0.4l0.1-0.1 0.4-0.2 0.2-0.3 0.3-0.6 0.1-0.5 0.3-1v-0.6l0.2-1.3v-0.8l0.1-2.3 0.1-1.4 0.1-0.6 0.2-1 0.1-0.5 0.2-0.7 0.1-0.3 0.2-0.3 0.2-0.1zm-1.1 133.7l-0.7 1.1-0.6 0.8 0.6-0.9 0.7-1 0.9-1.2zm0.9-1.3l0.6-1 1-1.3-0.9 1.3zm-10.5 2.5l0.3 0.3 0.1 0.1zm-34.4-21.3l0.1 0.2 0.4 0.8 0.3 0.5 0.6 1.1 0.4 0.6 0.9 1.5 0.5 0.7 1.1 1.7 0.6 0.9 1.3 1.9 4.5 6.4-4.3-6-1.3-1.8-0.6-0.9-1.2-1.7-0.5-0.7-1-1.4-0.4-0.6-0.8-1.1-0.3-0.5-0.7-1-0.2-0.4 0.3-0.3 0.3-0.3z"/>
		<path id="Layer" fill-rule="evenodd" class="s5" d="m341.5 550.3l0.3 0.6 0.2 0.4 0.3 1.1 0.1 0.6 0.2 1.7 0.2 3.1v0.8l0.1 1.2v0.6 1.1 0.9l-0.2 1.2-0.1 0.6-0.3 0.5-0.8 0.3h-0.3l-0.4-0.3-0.2-0.2-0.3-1-0.1-0.5-0.1-1.8-0.1-0.5v-1.2-0.6-2.9l0.1-2.1v-1l0.2-1.3 0.1-0.6 0.3-0.5 0.6-0.2m-21.9 0.1l1.3 0.9 0.3 0.3 0.4 0.5 0.1 0.3v0.6l-0.1 0.3-0.5 0.7-1.4 1.5-0.6 0.8-0.9 1.2-0.4 0.6-0.2 0.9v0.5l0.5 0.7 1.5 1.2 0.3 0.2 0.6 0.3h0.3l0.5-0.1 0.3-0.1 0.6-0.5 1-1.2 0.5-0.6 0.7-0.8 0.3-0.3 0.5-0.2h0.2l0.4 0.3 0.9 1 0.4 0.6 0.7 1.1 0.4 1.3v0.2l-0.5 0.4-0.3 0.1-1 0.3-0.5 0.1-1.4 0.1-0.7 0.1h-1.5l-1.5 0.1-2.8-0.2-0.6-0.1-1-0.2-0.5-0.2-0.5-0.3-0.4-0.4-0.5-1.2-0.2-0.6-0.1-1.3 0.1-0.7 0.4-1.3 1-1.7 0.4-0.4 0.7-1.1 0.4-1.5v-0.5l0.3-0.9 0.2-0.4 0.7-0.3 0.4-0.2zm65-290.9l0.1 0.3 0.2 0.9 0.1 0.6 0.3 1.3 0.3 2.4 0.1 0.8 0.3 1.9 0.1 1 0.4 2.1 0.2 1.1 0.4 2 0.6 2.6 1.5 5.6-4.2 6.2-1.8 2.7-3.7 5.3-1.9 2.5-3.7 4.9-1.8 2.4-3.7 4.6-1.9 2.3-3.8 4.3-3.8 4.3-7.7 7.7-12.3 10.7-3.2 2.6-6 4.6-3.1 2.3-6.4 4.4-1.6 1.1-3.6 2.4-1.9 1.1-4 2.5-2 1.3-4.6 2.8-7.6 4.5-0.2 0.2-0.3-0.1-0.1-0.1-0.1-0.4v-0.1l0.2-0.3 0.2-0.2 0.5-0.5 2.3-1.4 1.7-0.9 2.8-1.5 1.3-0.8 2.1-1.3 1-0.7 1.5-1.1 1.6-1.6 0.5-0.6 0.8-0.6 0.1-0.1 0.2-0.1 0.2 0.2v0.2l0.4-0.2 0.9-1 0.3-0.4 0.4-1.1 0.2-0.6 0.1-1.3 0.1-0.6-0.1-1.2-0.4-1.2-0.3-1-0.1-0.4-0.5-0.9-0.4-0.4-1-0.9-0.5-0.5-1-0.7-1.3-0.4h-0.3l-0.2-0.1h-0.2v-0.2-0.1l0.2-0.2 0.7-0.5 0.3-0.2 0.2-0.3v-0.1l-0.3-0.1-0.2-0.1h-0.8l-1.9 0.2-1.2 0.1-2.7 0.9-0.7 0.2-1.2 0.6-1.5 0.9-0.9 0.6-1.5 0.8-0.3 0.2-0.5 0.1h-0.4l-0.1-0.1 0.5-0.5 0.4-0.3 1.3-1 0.7-0.5 1.8-1.3 3.2-2.1 3.6-2.3 6.8-4.7 3.4-2.3 6.4-4.9 3.1-2.5 6.1-5.2 2.9-2.6 5.9-5.6 2.9-2.9 5.8-6.2 2.9-3.2 5.9-6.9 2.9-3.5 6.1-7.7 9.4-12.6 0.9-1.4 1.9-2.4 0.9-1.2 1.5-1.9 0.7-0.9 1-1.2 0.2-0.3 0.4-0.3 0.2-0.2h0.1zm-2.5 6.5l-0.3 0.3-0.5 0.7-0.3 0.4-0.4 1.1-0.3 1.6v0.2l-0.4 0.8-0.3 0.5-0.8 1.2-0.5 0.6-1.1 1.4-2 2.1-0.7 0.7-1.2 1.4-0.6 0.7-1 1.2-0.4 0.6-0.7 0.9-0.4 0.8v0.4l-0.5 1-1.2 1.6-0.4 0.6-0.8 1.3-0.7 1.7-0.1 0.4v0.5 0.2l0.1 0.1h0.1l0.2-0.3 0.6-0.8 0.4-0.4 0.8-0.6 1.2-0.2 0.3 0.1 0.7-0.4 0.8-1.3 0.2-0.6 0.7-0.7 0.5-0.4 1-0.3 0.5-0.1 1 0.1 1.2 0.9 0.1 0.2-0.1 0.5-0.1 0.3-0.4 0.8-2 2.8-0.8 0.9-1.4 1.8-0.2 0.4-0.4 0.7-0.3 0.6v0.2l-0.2 0.2-0.2 0.1-0.6 0.2-2.5 0.3h-0.9l-1.5 0.2-0.4 0.1-0.4 0.2-0.3 0.3v0.1l-0.1 0.4v0.3l-0.1 0.7-0.3 2.6-0.2 1.1 0.2 1.6v0.4l0.3 0.6 0.4 0.5 0.4 0.3 0.6 0.1h0.4l0.8-0.3 0.4-0.2 1.2-0.9 0.6-0.5 1.8-1.5 0.8-0.7 1.4-1.8 0.4-0.4 0.5-0.9 0.6-1.1 0.1-0.3 0.5-0.7 0.3-0.4 0.8-0.8 2.7-2.1 0.6-0.4 1-0.7 0.5-0.4 0.6-0.7 0.3-0.3 0.3-0.8 0.2-1.2v-0.7l0.6-1.5 1.4-1.9 0.6-0.5 0.8-1.3 0.3-0.7 0.2-1.6 0.1-0.8-0.3-1.6-1.1-2.2-0.4-0.5-0.5-1.6-0.1-2.4 0.2-0.7-0.1-1.6-0.6-1.8-0.3-0.3-0.3-0.4-0.2-0.2-0.2-0.1zm-46.2-34.6l-0.1 1.1-0.1 0.4 0.1 0.5 0.7 0.1 0.2-0.1 0.4 0.2 0.3 0.1 0.6 0.4 0.6 0.6 1.3 1.9 0.7 1 1.4 2.5 1.8 4.2 0.5 1.4 0.6 3.4 0.2 1.7v3.7 1.9l-0.5 3.7-1.4 5.1-0.6 1.7-1.5 3-0.9 1.4-2 2.7-1 1.3-2.5 2.4-4.2 3.2-1.2 0.8-2 1.2-0.9 0.5-1.2 0.5h-0.2l-0.3 0.1h-0.2l-0.1-0.2v-0.1l0.1-0.3 0.1-0.2 0.5-0.5 0.3-0.4 0.2-0.8-0.2-1-0.2-0.2 0.2-0.2 0.9 0.2h0.2 0.5 0.2l0.2-0.2 0.3-0.3v-1-0.6l-0.6-1.2-1.3-1.5-0.5-0.4-0.6-1.1-0.3-1.6v-0.4-0.5l-0.1-0.2-0.4-0.3-0.2-0.2-0.8-0.1h-1.7-0.8-1l-0.4-0.1-0.4-0.1h-0.1l0.2-0.3 1-0.6 1.3-0.8 2.4-1.8 1.1-0.9 1.7-2.2 0.8-1.1 1.2-2.4 0.6-1.2 0.6-2.5 0.2-1.2v-2.6l-0.1-1.3-0.6-2.5-0.4-1.2-1.3-2.4-2.6-3.3-3.4-3.4 4.4 0.5h0.9l1.3 0.1h0.6l0.8-0.1 0.3-0.1 0.4-0.3 0.2-0.8v-1l0.2-1.4v-0.7l0.3-0.8 0.1-0.3 0.4-0.3 0.7 0.1 0.4 0.1 0.8-0.2 0.8-1 0.2-0.4 0.5-0.7 0.9-0.5h0.3zm30.1-171.2l1.1 0.2 0.8 0.2 2.2 0.4 1.2 0.2 2.8 0.4 1.5 0.2 3.2 0.5 1.7 0.2 3.5 0.4 3.6 0.4 7.2 0.7 1.8 0.2 3.4 0.3 4.8 0.3 2.1 0.1 3.6 0.3 1.7 0.2 2.7 0.3 1.3 0.2 1.8 0.4 1.5 0.6 0.2 0.2 0.3 0.7 0.1 0.2 0.1 0.6 0.1 0.4 0.1 0.9v0.5l0.1 1.2 0.1 0.6 0.1 1.6v0.9l0.1 2v1.1l0.1 2.5v1.3 3.1l0.1 1.6v3.6 1.9 4.2 2.2l0.1 5v2.5 5.7 3 6.4 3.4 7.3 87.1l-3.9 5.8-1.5 2.2-0.8 1.1-1.2 1.5-0.6 0.8-1 0.9-0.5 0.4-0.9 0.3-0.4 0.1-0.9-0.3-0.4-0.2-0.9-0.8-0.5-0.5-1-1.4-1.9-2.7-0.6-0.8-0.9-1.5-0.4-0.6-0.7-1.1-0.3-0.5-0.3-0.7-0.2-0.4v-0.3-0.2h0.2 0.1l0.5 0.4 0.3 0.2 0.7 0.7 1.5 1.5 0.9 1 1.5 1.9 0.3 0.5 0.3 0.7 0.2 0.7v0.3l0.5 0.6 1.4 0.5 0.4 0.1 0.8-0.2 0.4-0.1 0.9-0.6 0.4-0.4 1.1-1 1.9-2.2 3.8-4.8-0.7-57v-3.9l-0.1-7.6-0.1-3.8-0.1-7.1v-3.4l-0.1-6.5-0.1-3.1v-5.6l-0.1-2.7-0.1-4.7v-1.1-1.9l-0.1-1v-1.6-0.9l-0.1-1.3v-0.6-1.1-0.4-0.7l-0.1-0.5v-0.4l-0.1-1-0.1-0.5-0.1-1.2-0.2-3.9-0.1-0.8-0.1-1-0.1-0.5-0.1-0.5-0.1-0.2-0.2-0.1-0.2 0.1-0.2 0.3-0.1 0.2-0.2 0.8-0.1 0.4-0.2 1.1-0.1 0.6-0.1 1.4-0.1 2.3v0.8l-0.2 1.3v0.6l-0.3 1-0.1 0.4-0.3 0.7-0.2 0.2-0.3 0.3-0.2 0.1-0.4-0.1-0.2-0.1-0.4-0.4-0.2-0.3-0.3-0.9-0.4-1.8-0.2-1.1-0.4-1.7-0.2-0.3-0.2-0.5-0.3-0.3h-0.1l-0.4 0.3-0.2 0.1-0.5 0.5-1.9 2.1-0.5 0.7-0.7 1.1-0.3 0.5-0.3 1.2-0.1 0.6 0.1 1.8v0.5l0.2 1.2 0.3 2.1 0.2 1.4 0.2 2.2v1 1.7l-0.1 0.8-0.3 1.4-0.9 2.3-0.4 0.9-0.6 2-0.1 0.5-0.2 1.3-0.1 0.7-0.2 1.6-0.1 0.8-0.1 2-0.1 1.1-0.1 2.4-0.1 1.3-0.1 3-0.2 5.3v1.9l-0.1 3.3-0.1 1.5-0.1 2.7v1.3l-0.1 2.1-0.1 1-0.2 1.6v0.8l-0.2 1.2-0.1 0.6-0.2 0.8-0.8 1.7-0.4 0.5-0.6 0.9-0.1 1 0.2 0.2v0.1l-0.3-0.1-0.2-0.1h-0.3-0.2l-0.7 0.4-0.4 0.3-1.2 1-0.4 0.3-0.8 0.7-1.6 1.4-0.8 0.6-1.5 1.1-0.3 0.3-0.6 0.3-0.6 0.2h-0.2l-0.2 0.3 0.2 0.9 0.2 0.4 0.1 0.3-0.4-0.2-0.1-0.1-0.4-0.1h-0.2l-0.4 0.2-0.4 0.3-0.7 1.1-0.4 0.6-0.4 1.4v1.9l0.2 0.5-0.2 1.5-0.9 2.2-0.5 0.6-0.6 1.2-0.2 0.6-0.2 1v0.5l0.1 0.7 0.1 0.3 0.4 0.5 0.3 0.2 0.7 0.2h0.3l0.9-0.3 0.4-0.1 1-0.6 1.5-1.5 0.6-0.7 1.5-1.1 0.7-0.5 1.6-0.7 0.8-0.2 1.6-0.2 2.2 0.4 0.3 0.1 0.5 0.3 0.2 0.1 0.1 0.2v0.1l-0.2 0.2-0.7 0.3-0.2 0.1-0.5 0.3-0.3 0.2-0.8 0.5-0.5 0.3-1.1 0.8-0.6 0.3-1.3 0.9-1.4 1-3.1 2.1-1.6 1.2-3.4 2.4-1.7 1.2-3.2 2.3-1.6 1.1-2.6 2-0.6 0.4-1.1 0.8-0.5 0.4-0.8 0.6-0.3 0.3-0.5 0.4-0.3 0.3 0.2 0.4 0.7 1 0.3 0.5 0.8 1.1 0.4 0.6 1 1.4 0.5 0.8 1.2 1.6 0.6 0.9 1.3 1.8 4.5 6.2 1.6 2.2 2.9 4 0.7 1 1.2 1.8 0.6 0.8 1.1 1.6 0.6 0.7 0.8 1.3 0.5 0.6 0.6 1 0.3 0.5 0.4 0.6 0.2 0.5v0.1l-0.4 0.8-0.2 0.5-0.7 1.2-0.4 0.7-1 1.5-0.5 0.8-1.2 1.6-0.5 0.8-1.1 1.5-0.6 0.7-1 1.2-0.4 0.6-0.8 0.8-0.7 0.5h-0.1l-0.3-0.4-0.3-0.2-0.6-0.8-0.4-0.5-0.9-1.2-0.5-0.6-1.1-1.6-0.6-0.8-1.3-1.8-0.7-1-1.4-2.1-1.5-2.1-3.3-4.8-1.6-2.5-3.1-4.5-0.8-1.1-1.4-1.9-0.7-1-1.2-1.7-0.6-0.8-1.1-1.4-0.4-0.6-0.9-1-0.3-0.5-0.6-0.6-0.5-0.4h-0.1l-0.3 0.1-0.2 0.1-0.6 0.4-0.7 0.3-1.9 1.2-1 0.6-2.4 1.6-4 2.8-1.5 1-2.6 1.8-1.3 0.8-2.1 1.3-1 0.5-1.5 0.7-0.3 0.1-0.5 0.1h-0.4l-0.3-0.2-0.9 0.2-1.3 1.1-0.3 0.4-0.4 0.5-0.2 0.2h-0.2l-0.1-0.4 0.1-1v-0.6l0.4-0.7 0.7-0.2 0.3 0.2 0.2-0.2-0.2-1.1-0.2-0.5-0.1-0.6-0.1-0.3 0.2-0.1 0.2-0.1 0.5 0.4 1.2 1.1 0.5 0.5 0.7 0.4 0.4-0.3v-0.3l-0.3-0.6-0.7-0.7-0.1-0.1-0.2-0.4-0.1-0.3-0.1-0.6 0.1-2.6 0.1-0.5v-1l-0.1-0.5-0.2-0.7-0.1-0.4-0.3-0.4-0.2-0.2-0.5-0.2-0.3-0.1-0.5 0.1-0.3 0.1-0.6 0.4-0.3 0.2-0.5 0.8-0.8 1.4v0.1 0.3l-0.1 0.1h-0.3v-0.1l0.2-0.2 0.2-0.2-0.5-0.6-1.2-1.1-0.4-0.3-0.5-0.3-0.2-0.2h-0.2l0.2 0.3 0.7 0.9 0.3 0.4 0.6 0.7 0.2 0.2 0.4 0.3 0.2 0.1-0.2 0.2h-0.9l-0.3-0.1-1.1-0.2h-1.9l-0.4 0.1-0.6-0.1h-0.3l-0.3-0.2-0.1-0.1 0.2-0.4 0.1-0.3 0.6-0.6 0.4-0.4 1.2-1 0.6-0.6 1.8-1.4 0.9-0.7 2.4-1.9 4.4-3.3 1.6-1.2 3-2.3 1.4-1.1 2.4-1.9 0.6-0.4 0.9-0.7 0.4-0.4 0.7-0.5 0.3-0.3 0.4-0.3 0.2-0.3-0.1-0.3-0.1-0.2-0.4-0.5-0.2-0.3-0.5-0.7-0.3-0.4-0.6-1-0.7-1-1.7-2.5-3-4.1-1-1.5-1.9-2.7-0.9-1.3-1.4-2.2-0.3-0.5-0.6-0.8-0.2-0.5-0.4-0.6-0.1-0.3-0.2-0.5-0.1-0.3 0.1-0.1 0.3 0.2 0.2 0.1 0.5 0.5 1.8 2.4 0.6 1 1.4 1.4 0.3 0.3 0.6 0.3 0.6 0.1 0.4-0.1 0.3 0.2-0.1 1.1-0.2 0.5v0.5l0.8-0.1 0.3-0.2 0.4-0.1 0.2 0.4-0.1 0.4 0.2 1.2 0.1 0.6 0.5 1.1 0.3 0.6 0.7 0.7 1.1 0.3 0.4-0.1 0.4 0.1v0.7l-0.1 0.4 0.4 1.1 0.3 0.5 0.9 1 0.5 0.5 1.1 0.7 1.3 0.1 0.5-0.3 0.6-0.9 0.2-0.5 0.2-1.2 0.1-0.6-0.3-1.2-0.7-1.4-0.4-0.4-0.4-0.4-0.1-0.2-0.1-0.3v-0.1l0.3-0.1h0.8 0.5l0.5-0.3v-0.7l-0.2-0.3-0.5-0.3-0.7 0.1h-0.2-0.3l-0.2-0.1-0.2-0.4-0.3-0.4-0.3-1.3-0.2-0.7v-1.4l0.5-1.6 0.4-0.3 0.1-0.9-1-1.5-0.4-0.5-0.8-1.3-0.6-1.8-0.1-0.5-0.5-0.7-0.8-0.4-0.3 0.1-0.8-0.6-1.1-1.5-0.3-0.5-0.3-0.7-0.1-0.3v-0.1-0.1l0.3 0.4 0.9 1 0.2 0.3 0.4 0.5 0.2 0.1 0.3 0.2 0.2 0.2 0.2-0.4v-0.2l-0.4-1-1.1-1.9-0.3-0.4-0.4-0.7-0.2-0.2-0.1-0.4v-0.1h0.2l0.6 0.1 0.1 0.1 0.4 0.3 0.2 0.2 0.5 0.5 0.5 0.6 1.5 1.9 0.8 1.1 1.9 2.5 2.9 4.3 1 1.5 2 2.8 0.9 1.3 1.7 2.2 0.7 1 1.2 1.5 0.3 0.3 0.4 0.4 0.3 0.3 0.1 0.1 0.5-0.3 0.3-0.1 1-0.6 0.5-0.3 1.4-0.9 0.7-0.5 1.7-1.2 0.9-0.6 2-1.4 1-0.8 2.2-1.6 7.2-5.5 18.4-14.1 0.5-79.3-6.2-0.6h-0.5l-1-0.2h-0.6l-1.3-0.2-1.4-0.1-3.3-0.5-10.7-1.3-1.2-0.2-2.1-0.3-0.9-0.1-1.7-0.3-0.7-0.1-1.2-0.2-0.6-0.1-0.7-0.2-0.4-0.1-0.4-0.2h-0.1l-0.1-0.2h0.1l0.2-0.2 0.8-0.1 1.2-0.2 1.8-0.5 0.7-0.2 1-0.6 0.4-0.3 0.4-0.7v-1.5-0.3l0.1-0.7 0.1-0.4 0.5-0.9 0.3-0.5 0.9-1 1.7-1.6 0.6-0.6 1-1 0.4-0.5 0.7-1 0.3-0.4 0.3-0.7v-0.9l-0.2-0.4-0.5-0.5h-0.8l-0.3 0.1-0.8-0.1-1.3-0.7-0.4-0.3-1.6-0.6-2.7-0.7-0.9-0.1-1.7-0.4-0.3-0.2-0.7-0.3-0.6-0.4-0.2-0.2-0.2-0.2v-0.2l0.2-0.1h0.1zm35 142.3l0.1 0.3 0.2 0.9 0.1 0.5 0.2 1.2 0.2 1.2v2.8l0.1 1.3-0.2 2.6-0.1 0.6-0.2 1.1-0.3 1.2-0.2 0.4-0.2 0.1-0.2-0.1-0.1-0.8-0.1-0.5-0.1-1.9v-0.5-1.3-0.6-2.9-2.3l0.1-1 0.1-1.4v-0.6l0.2-0.6zm-50.2-16.8l-0.3 0.6 0.1 0.8 0.3 0.4 0.3 0.3 0.2 0.2h0.3l0.1-0.1 0.2-0.4 0.1-0.2v-0.8-0.4l-0.3-0.5h-0.7zm-0.9-81.4h0.4l0.9 0.3 0.6 0.2 1.3 0.5 2.3 1 1.7 0.7 3.2 2 1.5 1.1 2.7 2.5 1.3 1.3 2.3 3 2.9 5 0.4 1 0.8 2.1 0.3 1.1 0.5 2.3 0.5 2.4 0.2 5v2.5l-0.6 4.8-0.3 1.2-0.6 2.2-1.1 3-0.8 1.5-2 3.1-1.1 1.5-2.6 2.8-1.3 1.3-2.9 2.4-4.5 2.7-1.1 0.6-2.7 1-1.3 0.4-2.5 0.7-0.6 0.1-1.1 0.2-0.5 0.1-0.8 0.1h-0.4-0.5l-0.2-0.1-0.1-0.2v-0.2l0.4-0.7 1.2-1.3 0.4-0.4 0.4-0.7-0.2-0.4h-0.1l-0.2-0.3-0.1-0.2-0.1-0.6v-0.4l0.1-0.9 0.2-1.5 0.2-1.1v-2.2-0.5l-0.2-0.9-0.3-0.9-0.2-0.5-0.1-0.8v-0.4l0.5-0.7 0.2-0.3 0.9-0.5 1.6-0.3h0.2l0.7-0.4 0.3-0.2 0.9-0.7 0.8-0.7 2-2.2 1-1.1 1.6-2.4 0.4-0.6 0.6-1 0.5-1.3 0.2-0.9 0.2-2v-0.9l-0.1-2.1-0.2-1-0.4-2-0.3-1-0.8-1.9-0.4-0.9-1-1.8-0.5-0.8-1.2-1.5-0.7-0.6-1.4-1.2-2.2-1.2-0.5-0.2-0.8-0.4-0.4-0.1-0.5-0.4-0.2-0.1-0.3-0.3v-0.1l0.1-0.3v-0.1l0.4-0.1 0.2-0.1 0.7-0.1h0.4 0.9l1.8 0.1 0.9 0.1 1.3 0.1h0.6l0.6-0.1h0.3l0.1-0.3-0.4-0.7-0.2-0.3-0.2-0.4-0.1-0.3 0.1-0.5 0.1-0.3 0.4-0.6 1-1 0.6-0.6 0.6-0.9 0.1-0.2v-0.3l-0.3-0.1h-0.3l-0.4-0.3 0.1-0.7v-0.1l-0.1-0.5-0.2-0.2-0.5-0.7-0.4-0.3-0.8-0.8-1.6-1.1-0.7-0.4-1-0.8-0.4-0.3-0.6-0.6-0.2-0.3-0.2-0.3v-0.2l0.2-0.1 0.2-0.1z"/>
		<path id="Layer" fill-rule="evenodd" class="s6" d="m72 557v-1.2l-0.1-1.7v-0.8l-0.2-1.1-0.1-0.4-0.4-0.5-0.7-0.3h-0.4l-0.7-0.3-0.4-0.7v-0.1l0.4-0.3 0.2-0.1 0.9-0.2 0.4-0.1 1.2-0.1 1.9-0.1h1.3l1.8 0.2 0.4 0.1 0.6 0.2 0.3 0.1 0.4 0.2 0.1 0.1 0.1 0.2v0.2l-0.2 0.2-0.1 0.1-0.6 0.3-1.1 0.4-0.4 0.1-0.6 0.4-0.3 0.2-0.3 0.7-0.2 0.5-0.1 1.3-0.1 2.9v1.1l-0.1 1.6v0.7l-0.2 1-0.1 0.4-0.4 0.5-0.7 0.3h-0.3l-0.4-0.3-0.2-0.2-0.3-0.8-0.1-0.4-0.1-1.4-0.1-0.8m13-3.1v-7h4.4l1.5 0.2 0.7 0.1 1.3 0.4 0.5 0.2 1 0.6 0.4 0.3 0.6 0.7 0.3 0.4 0.3 0.8 0.1 0.4v0.9l-0.1 0.5-0.4 1-1.1 1.5-0.4 0.4-0.4 0.6-0.2 0.2-0.1 0.4v0.3l0.3 0.3 0.8 0.8 0.5 0.4 0.6 0.7 0.2 0.4 0.1 0.6v0.3l-0.3 0.4-1.1 0.2h-0.4l-1-0.7-1.3-1.8-0.3-0.7-0.9-1.1-1.3-0.7h-0.3l-0.6 0.7-0.4 1.8v0.8l-0.4 1-1.1 0.7h-0.3l-0.4-0.3-0.2-0.2-0.3-0.9-0.1-0.5-0.1-1.7-0.1-0.9zm7.8-2.1l0.1-0.5-0.5-0.8-0.3-0.4-1-0.4-0.5-0.2-1.1 0.1-1.4 0.7-0.4 0.5-0.1 0.8 0.7 1.2 0.4 0.4 0.9 0.4 0.5 0.1 0.9-0.1 0.4-0.1 0.8-0.5 0.3-0.3zm8.6 7.4l0.6-1.7 1-2.9 0.5-1.4 0.9-2.1 0.4-0.9 0.9-1.4 0.4-0.5 0.8-0.7 0.4-0.2 0.8 0.2 0.3 0.1 0.8 0.8 0.4 0.6 0.8 1.5 1.2 3.1 0.4 1 0.5 1.7 0.3 0.9 0.2 1.2 0.1 0.6v0.8l-0.3 0.7-0.3 0.1-0.7-0.2-1-0.9-0.3-0.5-1.1-0.7-0.6-0.3-1.4-0.1h-0.7l-1.2 0.3-1.2 1.1-0.2 0.6-0.7 0.6-0.3 0.3h-0.8-0.4l-0.4-0.4-0.2-0.3zm7-6.3l-0.1-0.6-0.3-0.6-0.1-0.3-0.2-0.2h-0.1l-0.3 0.2-0.5 0.9-0.3 0.5-0.2 1.2 0.1 1.6 0.1 0.3 0.3 0.5 0.1 0.1 0.4 0.1 0.3 0.1 0.5-0.5 0.3-0.3 0.2-1.1 0.1-0.6zm10.5 1v-0.8-1.3-0.6l0.1-1v-1l0.2-1.1 0.1-0.5 0.4-0.4 1-0.1 0.2 0.1 0.6 0.4 0.3 0.2 0.7 0.7 1.9 2.7 0.6 1 1 1.6 0.3 0.4 0.4 0.4 0.4 0.3h0.1l0.2-0.3 0.1-0.1 0.2-0.7 0.4-2.6 0.1-0.8 0.1-1.2 0.1-0.5 0.3-0.7 0.1-0.3 0.3-0.2 0.1-0.1 0.3 0.3 0.1 0.1 0.3 0.6 0.1 0.4 0.2 1 0.1 0.6 0.2 1.3 0.2 2.5v0.8l0.1 1.3v0.6 0.9 1l-0.2 1.1-0.1 0.4-0.4 0.5-1.1 0.1h-0.3l-0.7-0.2-0.3-0.2-0.6-0.5-0.3-0.4-0.6-0.9-0.9-1.8-0.5-1.1-1-1.7-0.2-0.3-0.4-0.5-0.5-0.4h-0.1l-0.2 0.4-0.1 0.2-0.2 0.6-0.2 2.8v0.8l-0.1 1.1v0.5l-0.2 0.7-0.2 0.3-0.3 0.4-0.7 0.2h-0.3l-0.4-0.3-0.2-0.2-0.3-0.9-0.1-0.5-0.1-1.7-0.1-0.9zm19.5 5.7l-0.7-0.5-0.5-0.8-0.2-0.3 0.1-0.5 0.2-0.1 0.8-0.1 1.8 0.7 0.6 0.3 1.3 0.3 0.6 0.1 1-0.1 0.5-0.2 0.6-0.4 0.2-1.1v-0.2l-0.4-0.4-0.2-0.2-0.7-0.4-2.5-1.1-0.9-0.3-1.4-0.8-0.6-0.5-0.7-1-0.3-0.6 0.1-1.1 0.9-1.9 0.2-0.3 0.7-0.4 0.4-0.2 0.9-0.3 1-0.2 2 0.1 1 0.1 1.6 0.7 0.4 0.2 0.4 0.6 0.3 0.9v0.4l-0.1 0.6-0.1 0.2-0.4 0.1h-0.2l-0.7-0.2-1.6-0.7-0.6-0.4-1.2-0.2-1.8 0.5-0.4 0.2-0.4 0.3-0.2 0.2 0.1 0.3 0.1 0.1 0.5 0.4 1.5 0.6 0.9 0.4 1.4 0.6 0.7 0.3 1.1 0.6 0.5 0.3 0.7 0.6 0.4 0.2 0.4 0.6 0.2 0.3 0.2 0.6v0.3l-0.1 0.6-0.1 0.3-0.4 0.6-0.9 1.1-0.5 0.5-1.2 0.6-0.7 0.3-1.4 0.1h-0.7l-1.5-0.3-0.7-0.2zm15.6-5.5v-7.1h5.1l1.1 0.1h0.5l0.8 0.2 0.4 0.1 0.5 0.2 0.2 0.1 0.3 0.2v0.2l-0.1 0.2-0.1 0.1-0.4 0.3-0.2 0.1-0.8 0.2-1.6 0.2-0.9 0.1-1.3 0.6-0.6 0.3-0.4 0.8-0.1 0.4 0.5 0.7 0.1 0.2 0.6 0.2 1.1 0.3 0.6 0.1 1 0.4 0.7 0.7v0.3l-0.7 0.4-1.6 0.5-0.4 0.1-0.6 0.2-0.3 0.1-0.4 0.4-0.2 0.2-0.2 0.6-0.1 1.1v0.7l-0.4 1.2-0.9 1h-0.2l-0.4-0.2-0.1-0.2-0.2-0.9-0.1-0.5-0.2-1.6v-0.9zm16.6 5.3l-0.3-0.2-0.4-0.7-0.1-0.4-0.4-0.9-0.4-3.2v-1.1l0.4-1.9 0.2-0.9 0.9-1.3 0.5-0.6 1.4-0.7 2.5-0.5h0.9l1.6 0.5 0.8 0.4 1.1 1.1 0.6 0.6 0.7 1.7 0.4 3v0.7l-0.3 1.3-0.2 0.6-0.6 1.1-0.3 0.6-0.9 0.8-0.5 0.4-1 0.6-0.5 0.3-1.2 0.3-0.5 0.1h-1.2l-0.6-0.1-1.1-0.4-0.5-0.3zm6.2-1.3l0.2-0.1 0.3-0.5 0.2-0.3 0.2-0.7 0.1-2.6v-0.8l-0.3-1-0.1-0.5-0.4-0.6-0.2-0.2-0.6-0.4-1.5-0.3h-0.6-0.9-0.4l-0.4 0.4-0.2 0.2-0.1 0.9-0.1 2.2v0.9l0.2 1.3 0.1 0.6 0.4 0.9 0.2 0.4 0.7 0.5 1.4 0.5h0.1l0.6-0.2 0.4-0.2zm11.1-4v-7.1h4.9l1.7 0.3 0.9 0.2 1.4 0.7 0.6 0.4 1 0.9 0.5 1.5v0.3l-0.5 0.9-1.4 1.6-0.5 0.4-0.6 0.6-0.2 0.3-0.2 0.5v0.3l0.2 0.6 0.7 1.1 0.5 0.6 0.6 0.9 0.2 0.5 0.1 0.6v0.3l-0.3 0.3-1.1 0.2h-0.4l-1-0.8-1.2-1.7-0.4-0.7-0.7-0.9-0.4-0.4-0.7-0.1h-0.3l-0.5 0.5-0.4 1.6v0.5l-0.3 0.9-0.9 0.8-0.2 0.1-0.4-0.2-0.1-0.2-0.3-0.9-0.1-0.6-0.1-1.5v-0.9zm7-2.6v-0.3l-0.7-0.5-1.8-0.5-0.5-0.1h-0.7-0.3l-0.4 0.2-0.2 0.1-0.3 0.4-0.1 0.7v0.3l0.1 0.4 0.1 0.2 0.4 0.3 0.2 0.1 0.5 0.1 1.2-0.1 0.7-0.1 1.1-0.4 0.4-0.3zm10 2.6v-0.8-1.3-0.6-1l0.1-1 0.2-1.2 0.1-0.5 0.5-0.4 1-0.3h0.3l0.6 0.3 0.3 0.1 0.5 0.5 0.3 0.3 0.5 0.8 0.6 1.5 0.2 0.6 0.3 0.9 0.2 0.4 0.3 0.6 0.2 0.3 0.3 0.3 0.1 0.2 0.3 0.1h0.3l0.6-0.8 0.8-2.3 0.2-0.6 0.4-0.9 0.2-0.4 0.4-0.6 0.2-0.2 0.6-0.4 0.9-0.2h0.5l0.6 0.2 0.2 0.2 0.4 0.7 0.1 0.5 0.1 1.5v0.4l0.1 1v2 1.1l-0.1 1.8v0.8l-0.2 1.3-0.1 0.5-0.4 0.7-0.6 0.6-0.2 0.1-0.4-0.1h-0.1l-0.2-0.5-0.1-0.2v-0.9-1.8l0.1-1-0.1-1.5-0.1-0.6-0.5-0.5-0.2-0.1-0.6 0.5-0.1 0.2-0.3 0.6-0.3 1.2-0.2 0.7-0.6 1-0.3 0.4-0.6 0.4-0.4 0.1-0.6-0.3-0.8-1.3-0.1-0.5-0.8-1.3-1.3-1.5-0.3-0.3-0.5-0.2-0.2-0.1-0.2 0.2-0.1 0.2v0.8l0.1 2 0.1 0.6v1.1 0.5l-0.1 0.8-0.1 0.3-0.3 0.5-0.5 0.5-0.2 0.1-0.3-0.3-0.2-0.2-0.2-0.9-0.1-0.5-0.1-1.6-0.1-0.9zm20.1 5.2v-0.2l0.2-0.9v-0.4l0.4-1.2 1.2-4.1 0.3-0.8 0.6-1.5 0.3-0.6 0.6-1 0.3-0.4 0.6-0.5 0.3-0.2h0.6l0.4 0.1 0.6 0.4 0.3 0.3 0.6 0.9 0.4 0.5 0.7 1.4 1.1 2.7 0.3 1 0.6 1.8 0.3 0.8 0.3 1.2 0.1 0.6-0.1 0.8-0.3 0.7-0.3 0.1-0.7-0.2-1-0.9-0.3-0.5-1.1-0.7-0.6-0.3-1.3-0.1h-0.7l-1.3 0.3-1.1 1.1-0.2 0.6-0.5 0.6-0.3 0.2-0.5 0.1h-0.2l-0.4-0.5-0.2-0.3zm7-4.1v-0.6l-0.3-0.9-0.2-0.5-0.4-0.5-0.3-0.2h-0.6l-0.8 0.6-0.2 0.4-0.1 0.8v0.5l0.3 0.8 0.1 0.4 0.5 0.7 0.9 0.4h0.3l0.5-0.6 0.1-0.3zm12 0.4v-1.2-1.7l-0.1-0.8-0.2-1-0.2-0.5-0.4-0.5-1-0.5-0.5-0.1-0.5-0.2-0.3-0.2-0.3-0.2-0.1-0.1 0.1-0.3v-0.1l0.3-0.3 0.4-0.2 1.4-0.3 2.9-0.3h1.2l1.8 0.3 0.8 0.1 1 0.4 0.2 0.1 0.1 0.3 0.1 0.1-0.1 0.3-0.1 0.1-0.4 0.2-1 0.4-0.4 0.1-0.6 0.4-0.2 0.2-0.4 0.8-0.2 0.4-0.2 1.2-0.2 2.7-0.1 0.9-0.2 1.6-0.1 0.7-0.3 1.1-0.1 0.5-0.3 0.6-0.2 0.3-0.3 0.1-0.2 0.1-0.3-0.3-0.1-0.3-0.3-0.7-0.1-0.5-0.2-1.3v-0.6zm12.4 4.1l-0.1-0.3-0.2-0.9v-0.5l-0.1-1.2v-1.3l0.2-2.8 0.2-1.3 0.4-2.3 0.2-0.5 0.3-0.7 0.4-0.6 0.3-0.1 0.3 0.3 0.2 0.2 0.2 0.9 0.1 0.5 0.1 1.6 0.1 3.3v0.8l-0.1 1.5v0.6l-0.1 1.2-0.1 0.6-0.2 0.9-0.1 0.4-0.2 0.6-0.1 0.3-0.3 0.3-0.1 0.1-0.3-0.1-0.2-0.1-0.3-0.4-0.2-0.2zm11.2-0.9l-0.5-0.6-0.6-1.3-0.2-0.7-0.3-1.3v-0.7-1.3l0.1-0.7 0.4-1.2 0.3-0.5 0.6-1.1 0.4-0.4 0.9-0.8 0.5-0.4 1.1-0.4 2-0.3h0.9l1.5 0.4 0.7 0.3 1.1 1.1 0.5 0.6 0.6 1.6 0.4 3v1l-0.4 2.2-0.2 0.4-0.3 0.9-0.6 0.9-0.6 0.6-1.6 0.6-0.8 0.3h-1.7-0.8l-1.6-0.6-0.7-0.4zm5.8-0.4l0.3-0.1 0.5-0.5 0.2-0.2 0.3-0.8 0.3-0.8 0.1-2v-1l-0.4-1.8-0.2-0.4-0.4-0.6-0.7-0.6-0.4-0.2-0.9 0.1h-0.4l-0.7 0.4-0.4 0.2-0.5 0.7-0.3 0.4-0.4 0.9-0.4 0.9v2.1 0.5l0.4 1 0.8 1.2 0.4 0.4 0.4 0.4 0.2 0.2 0.4 0.1 0.2 0.1 0.5-0.2h0.3zm11.6-4.4v-0.8-1.3-0.6-1.1l0.1-0.9 0.2-1.2 0.1-0.5 0.4-0.4h0.9 0.2l0.6 0.4 0.3 0.2 0.8 0.8 2 2.9 0.4 0.6 0.6 1 0.3 0.5 0.5 0.7 0.2 0.3 0.4 0.4 0.2 0.1 0.3 0.2h0.2l0.2-0.2 0.1-0.1 0.2-0.5v-0.3l0.1-0.8 0.1-1.4v-0.8l0.1-1.2 0.1-0.6 0.2-0.7 0.1-0.3 0.2-0.2 0.1-0.1 0.3 0.2 0.1 0.1 0.2 0.6 0.1 0.3 0.2 0.9 0.1 0.5 0.2 1.3 0.1 2.2v1.3l-0.1 1.8-0.1 0.9-0.2 1.1-0.1 0.5-0.4 0.5-0.8 0.5h-0.3l-0.6-0.2-0.3-0.1-0.7-0.6-0.3-0.3-0.7-0.9-1.1-1.9-2.3-4.3-0.5 3.9-0.2 1.1-0.6 1.8-0.1 0.4-0.4 0.6-0.5 0.4-0.2 0.1-0.4-0.3-0.1-0.2-0.3-0.9-0.1-0.5-0.1-1.6v-0.9zm75.8 1.2l-0.1-1-0.1-1.6-0.1-0.7-0.3-1.1-0.1-0.5-0.4-0.5-0.6-0.3h-0.4l-0.8-0.4-0.7-0.9-0.1-0.2 0.2-0.3 0.2-0.2 0.7-0.2 0.4-0.1 1.2-0.1 2.6-0.1h1.4l2.1 0.3h0.4l0.7 0.3 0.4 0.1 0.4 0.2 0.2 0.2 0.1 0.3v0.1l-0.2 0.3-0.1 0.2-0.6 0.3-1.2 0.4-0.4 0.1-0.6 0.4-0.3 0.2-0.4 0.7-0.1 0.4-0.1 1.3-0.1 2.8v1l-0.1 1.5v0.7l-0.2 1-0.2 0.4-0.3 0.5-0.7 0.3h-0.2l-0.5-0.3-0.2-0.2-0.3-0.8-0.1-0.5-0.2-1.3-0.1-0.7zm14.8 4.2l-0.2-0.3-0.4-0.7-0.2-0.3-0.3-1-0.5-3.2v-0.8l0.2-1.4 0.2-0.6 0.4-1.2 0.3-0.5 0.7-0.9 0.3-0.4 0.9-0.6 0.5-0.2 1-0.3 0.5-0.1h1.1l0.6 0.1 1.2 0.4 1.9 1.1 0.4 0.3 0.6 0.6 0.3 0.4 0.4 0.8 0.2 0.4 0.2 1 0.1 1.9v1.2l-0.4 1.9-0.2 0.8-0.9 1.3-0.5 0.6-1.4 0.8-2.6 0.4h-0.8l-1.7-0.4-0.8-0.3zm7-4.9v-1l-0.1-1.2-0.1-0.6-0.3-0.7-0.2-0.3-0.6-0.3-1.5-0.3h-0.6-0.9-0.4l-0.4 0.3-0.2 0.3-0.2 0.9v2.1 1.1l0.1 1.7 0.1 0.7 0.4 0.9 0.3 0.3 0.8 0.4 1.7-0.1h0.4l0.6-0.3 0.3-0.1 0.4-0.6 0.1-0.3 0.2-0.9v-0.6zm10.5 0.6v-7l0.4-0.3 0.9-0.3h0.3l0.5 0.7 0.2 1.6-0.1 0.7 0.2 0.9 0.1 0.4 0.6 0.1h0.3l0.8-0.6 1.4-1.8 0.5-0.7 1.1-1 1.5-0.8h0.4l0.6 0.2 0.2 0.1v0.5 0.2l-0.6 1-1.5 2.1-2.1 2.9 2.1 3 0.7 0.9 0.8 1.2 0.4 0.5 0.2 0.7 0.1 0.3-0.3 0.3-1 0.1h-0.2l-0.5-0.2-0.3-0.1-0.6-0.5-1.6-1.9-1.9-2.8-0.5 2.5-0.2 0.6-0.6 1.2-1 1-0.3 0.1-0.3-0.3-0.2-0.1-0.2-0.8-0.1-0.5-0.1-1.3v-0.8zm16.8 0.4v-1.5l-0.1-2.7-0.1-0.6v-1-0.9l-0.1-0.2 0.3-0.4 0.2-0.1 0.7-0.3 0.4-0.1 1.1-0.3 2-0.2h0.7 1.3 0.5l1 0.1 0.4 0.1 0.5 0.2 0.4 0.4v0.1l-0.3 0.3-0.1 0.1-0.5 0.2-2.1 0.3h-0.8l-1.5 0.4-0.3 0.1-0.5 0.2-0.5 0.5-0.2 0.3 0.1 0.7 0.1 0.3 0.7 0.6 0.5 0.3 1.1 0.4 2.2 0.2h0.4l0.5 0.1 0.3 0.1 0.3 0.1 0.2 0.2-0.2 0.4-0.2 0.3-1 0.5-2.2 0.5-0.6 0.1-0.7 0.2-0.4 0.1-0.5 0.3-0.2 0.2-0.2 0.4v0.2 0.4l0.2 0.4 1 0.7 2.6 0.6 0.7 0.1 1 0.2 0.4 0.1 0.6 0.2 0.2 0.1 0.3 0.2v0.2l-0.1 0.2-0.1 0.1-0.4 0.3-0.3 0.1-0.8 0.2h-0.4l-1 0.2h-1.9-4.4zm16.8 4.9l-0.1-0.1-0.2-0.7-0.1-0.4-0.1-1.2-0.1-0.6v-1.6l-0.1-2.5v-0.7-1.3-0.6l0.1-0.9v-0.9l0.2-1 0.2-0.4 0.5-0.3h1.3l0.3 0.1 0.7 0.3 0.4 0.2 0.7 0.6 0.3 0.4 0.7 0.9 0.9 1.6 0.3 0.6 0.6 1 0.2 0.4 0.5 0.7 0.2 0.3 0.4 0.4 0.2 0.1 0.4 0.1 0.1-0.1 0.3-0.2 0.1-0.2 0.2-0.5v-0.3l0.1-0.9 0.1-1.7v-1.1l0.3-1.7 0.1-0.4 0.2-0.4 0.4-0.4h0.1l0.3 0.6 0.1 0.3 0.2 1.2 0.1 0.6 0.1 1.6 0.1 2.8v0.8 1.3 0.6l-0.1 1v1l-0.2 1.1-0.1 0.5-0.4 0.4-0.9 0.1-0.3-0.1-0.6-0.4-0.3-0.2-0.6-0.7-1.8-2.7-0.3-0.6-0.6-1-0.2-0.4-0.5-0.7-0.2-0.3-0.4-0.4-0.2-0.1-0.4-0.1h-0.1l-0.3 0.2-0.1 0.1-0.1 0.6-0.1 0.2v0.8 1.6l0.1 0.8-0.1 1.4-0.2 0.7-0.4 0.8-0.2 0.4-0.6 0.1-0.4 0.1zm19.6-0.1l-0.3-0.1-0.6-0.6-0.3-1.2v-0.4l0.1-0.5v-0.3l0.4-0.1h0.2l0.7 0.2 1.4 0.9 0.5 0.3 1.4 0.3 1.7-0.1 0.3-0.2 0.4-0.3 0.2-0.1 0.1-0.4 0.1-0.4-0.5-0.8-0.3-0.4-1.2-0.6-2.1-0.5h-0.7l-1.2-0.5-0.5-0.3-0.9-1-0.3-0.5-0.4-1.3 0.2-1.8 0.1-0.4 0.7-0.7 0.3-0.3 1-0.4 1-0.3 2.5-0.1h0.6l1.2 0.2 0.5 0.1 1 0.4 0.4 0.2 0.7 0.6 0.4 1.1v0.3l-0.4 0.4-0.3 0.2-0.7 0.1h-0.3l-0.8-0.3-1.2-0.7-0.3-0.3-0.9-0.3h-0.5l-1 0.2-0.4 0.2-0.7 0.5-0.3 1.1 0.1 0.1 0.3 0.3 0.3 0.2 0.6 0.3 2.4 0.8 1.2 0.3 1.8 0.7 0.7 0.5 0.9 1 0.3 0.6-0.1 1.2-1.3 2-0.4 0.4-1.2 0.6-0.6 0.2-1.5 0.2-0.8 0.1h-1.5l-0.8-0.1zm-418.7-41.1l-1.2-0.1-2.9-0.7-1.5-0.3-3-0.8-0.7-0.2-1.2-0.5-0.6-0.2-1-0.4-0.4-0.1-0.7-0.4-0.3-0.3v-0.2l0.2-0.9 0.2-0.6 0.5-1.7 0.2-0.9 0.7-2 0.3-1.1 0.7-2.2 0.4-1.1 0.7-2.2 0.4-1 0.6-1.9 0.3-0.8 0.5-1.2 0.4-0.9 0.1-0.1h0.5l0.3 0.1 1 0.2 0.5 0.1 1.2 0.4 2.1 0.8 1.8 0.6 3.4 0.9 1.6 0.3 3 0.1h1.4l2.5-0.6 3.1-1.8 2.9-2.4 0.2-34.6 0.3-34.6h21v36.6l-0.1 4.9v2.4 4.5 2.2l-0.1 4.1-0.1 2v3.5l-0.1 1.7-0.1 3-0.1 1.4-0.1 2.4-0.1 1.1-0.1 1.7-0.2 1.7-0.4 1.7-1.1 3.2-0.6 1.6-1.5 2.9-0.8 1.4-1.8 2.4-2.9 2.7-0.7 0.5-1.7 0.9-0.9 0.4-2 0.8-1.1 0.3-2.3 0.6-1.2 0.3-2.6 0.4-2.6 0.4-5.6 0.2h-2.9zm85.5-0.9h-0.1l-0.1-0.3-0.1-0.2-0.2-0.6-0.2-0.6-0.7-2-0.4-1.1-1-3-0.5-1.5-1.2-3.8-0.6-1.9-1.4-4.4-0.7-2.3-1.6-4.9-0.8-2.6-1.7-5.3-2.6-8.5-0.9-2.9-1.7-5.6-0.9-2.7-1.6-5.3-0.8-2.6-1.5-4.8-0.7-2.3-1.3-4.2-0.7-2-1.1-3.6-0.5-1.6-0.9-2.7-0.3-1.3-0.6-1.7-0.1-0.4-0.2-0.5-0.2-0.5-0.3-0.8-0.4-1.5-0.4-1.5 0.3-0.2h0.1l0.5-0.1 0.6-0.1 1.8-0.2 1.1-0.1 2.6-0.1 4.5-0.1h11.5l1.1 4.2 0.1 0.3 0.3 1.1 0.1 0.6 0.5 1.7 0.2 0.9 0.6 2.2 0.3 1.1 0.7 2.6 0.4 1.3 0.8 3 0.4 1.5 0.8 3.1 2.7 10.2 1 3.5 1.7 6.4 0.4 1.5 0.8 2.8 0.4 1.4 0.7 2.5 0.3 1.1 0.6 2 0.3 1 0.5 1.5 0.2 0.7 0.3 0.9 0.2 0.6 0.2 0.2 0.4 0.1h0.1l0.4-0.5 0.3-0.2 0.5-1.1 0.2-0.6 0.7-1.8 0.4-1 0.9-2.8 0.2-0.7 0.6-1.8 0.3-0.8 0.6-2 0.3-1 0.7-2.3 0.3-1.2 0.8-2.6 0.4-1.4 0.9-2.9 1.4-4.8 1.1-3.9 2.1-7.1 0.5-1.7 0.9-3.1 0.5-1.6 0.8-2.7 0.4-1.4 0.6-2.3 0.3-1 0.6-1.8 0.2-0.7 0.3-1.1 0.3-0.9v-0.2l0.7-0.3 0.4-0.2 1.4-0.2 0.8-0.1 2.1-0.1 4.3-0.1h9.3l5.3 17.7 1 3.6 2 6.4 0.9 3.1 1.7 5.6 0.8 2.7 1.5 4.7 0.7 2.3 1.3 3.8 0.6 1.9 1 2.9 0.5 1.4 0.7 2.1 0.4 0.9 0.5 1.2 0.5 0.7 0.2-0.2v-0.2l0.3-0.6 0.1-0.3 0.3-0.8 0.1-0.5 0.4-1.1 0.6-2 0.2-0.7 0.5-1.7 0.5-1.7 1.2-4.2 0.6-2.2 1.3-5 0.7-2.6 1.6-5.8 0.8-3 1.7-6.5 2.6-10.4 2.8-11 11.3-0.3h1 1.8l0.8-0.1h1.5l1.4 0.1 2.1 0.1h0.9l1.1 0.3 0.6 0.5v0.1l-0.1 0.5-0.3 1.4-0.2 0.6-0.4 1.5-0.2 0.8-0.6 1.8-0.2 1-0.7 2.1-0.3 1.1-0.7 2.5-2.4 7.9-0.7 2.3-1.5 5.1-0.8 2.7-1.7 5.5-1.7 5.6-3.5 11.8-0.9 2.9-1.7 5.7-0.8 2.8-1.6 5.4-0.8 2.6-1.4 4.9-2 6.6-2 6.8-10.6-0.3-10.6-0.3-9-27.7-0.6-1.6-0.9-3-0.5-1.4-0.9-2.7-0.4-1.3-0.8-2.3-0.4-1.2-0.7-2.1-0.3-1-0.6-1.7-0.3-0.9-0.5-1.5-0.6-1.5-0.8-2.3-0.4-1-0.6-1.4-0.3-0.7-0.4-0.7-0.2-0.3-0.4-0.2-0.4 0.1-0.2 0.5-0.1 0.3-0.3 0.9-0.2 0.5-0.4 1.4-0.3 0.7-0.5 1.8-0.3 0.9-0.7 2.1-0.3 1-0.8 2.3-0.7 2.4-1.7 5.3-1.6 5.4-3.4 10.9-0.8 2.7-1.5 4.7-0.3 1.1-0.6 2-0.8 2.7-0.3 1.1-0.5 1.6-0.2 0.8-0.4 1.1-0.2 0.6-0.5 0.8-0.3 0.3-0.7 0.5-0.5 0.3-1.1 0.2-0.7 0.1-1.6 0.1-1 0.1h-2.4l-4.5 0.1h-1l-2-0.1h-0.9l-1.6-0.1-0.7-0.1-1.1-0.3-0.5-0.1zm149.8 0.9l-5.7-0.4v-73.9h-23.8l-0.6-3.1-0.2-0.9-0.2-2.3-0.2-3.2v-0.9l0.2-2.3 0.4-3.2 0.6-3.1h69.9l-0.6 18.5-24.5 0.6v73.6l-3.8 0.7-1 0.1-1.9 0.2-0.4 0.1h-0.7-0.7-0.2l-0.7-0.1h-0.4l-1.1-0.1-1.2-0.1zm60.2-93.3h21v93h-21zm47.5 90.8v-0.1l-0.1-0.4v-0.2-0.7-0.7l-0.1-2.3v-1.2l-0.1-3.2v-1.7-4-2.1-4.7-10.4-5.7-8.9l0.3-44 26.8-0.3 26.7-0.2v19l-16.2 0.2-16.3 0.3-0.6 17.5 28.6 0.5v19l-14.2 0.3-14.3 0.3v35.9h-11.2-1.9-1-1.5l-0.7-0.1h-1.1l-0.5-0.1-0.7-0.1-0.7-0.2-0.7-0.5-0.2-0.3zm98.5-34.8l-16-27.4-1.1-1.9-2.1-3.6-1.1-1.8-1.9-3.4-1-1.6-1.8-3.1-0.8-1.4-1.5-2.7-0.8-1.3-1.2-2.1-0.6-1.1-0.9-1.6-0.4-0.7-0.5-1-0.3-0.7 0.2-0.1h0.2l0.5-0.1h0.6l2-0.2h1l2.8-0.1h4.6 11.9l9.1 16.9 1.3 2.4 2.3 4.3 0.6 1 1.1 1.9 0.5 0.9 0.9 1.7 0.5 0.8 0.8 1.3 0.3 0.7 0.6 1 0.3 0.4 0.4 0.7 0.4 0.4 0.1 0.1 0.3-0.3 0.2-0.2 0.5-0.7 0.3-0.5 1.1-1.7 1-1.4 0.4-0.8 1.1-1.8 0.6-0.9 1.1-2 3.9-6.7 9.7-17.5h13.2 3.1l1.4 0.1 2.1 0.1 1 0.1 1.2 0.3 0.8 0.4v0.1l-0.4 0.7-0.2 0.5-0.7 1.3-0.5 0.8-1.1 2-0.6 1-1.4 2.5-0.8 1.3-1.7 2.9-0.8 1.6-2 3.2-1 1.7-2.1 3.6-3.3 5.6-16.6 27.7 0.3 17.5 0.4 17.5-10.8 0.2-10.7 0.3zm-270.2-178.9l-1.6-0.9-2.5-2.1-1.2-1.1-1.8-2.6-0.7-1.3-1.1-2.9-0.4-1.5-0.2-3.1v-1.5l0.5-3 0.3-1.5 1.3-2.9 0.8-1.4 2.1-2.6 3.9-3.3 4.1-2.5-0.7-24.1-0.1-3.3-0.2-6.1v-1.4l-0.1-2.7-0.1-1.3-0.1-2.3v-1.1l-0.1-1.9-0.1-0.9v-1.4l-0.1-0.7-0.1-0.8v-0.6h-0.1-0.6l-0.5-0.1h-1.4-0.8l-2-0.1h-1.1-2.7-1.4-3.1-1.6l-3.6-0.1h-1.8-3.9-6.1l-30.2 0.1-3.8 3.9-1.1 1.2-2.5 1.8-1.2 0.8-2.7 1.1-1.4 0.5-2.7 0.5-1.4 0.1-2.7-0.2-1.3-0.2-2.6-0.8-1.3-0.5-2.3-1.5-1.2-0.8-2-2.1-2.5-3.8-0.5-0.9-0.6-1.7-0.3-0.8-0.4-1.7-0.2-1.7 0.1-3.3 0.2-1.7 1.1-3 0.6-1.5 1.9-2.7 1-1.3 2.5-2.1 1.3-1 3-1.4 1.5-0.6 3.4-0.5 0.9-0.1 1.8 0.1 2.7 0.4 0.5 0.1 1.2 0.5 0.6 0.3 1.3 0.8 1.3 0.8 2.6 2.2 1.3 1.2 2 2.4 0.4 0.6 0.7 1.1 0.6 1.6 0.6 2.9 30.6-0.3 30.5-0.2-0.4-42.5h12.2v103.7l3 1.3 1.2 0.5 2.1 1.6 1.1 0.8 1.6 2.3 0.8 1.1 1.1 2.7 0.9 4.5 0.1 1.8v2.8 1.3l-0.5 2.1-0.3 1.1-1 1.9-2.4 3.1-0.7 0.8-1.6 1.4-0.8 0.7-1.7 1.1-0.8 0.5-1.9 0.7-0.9 0.4-1.9 0.5-1 0.1-1.9 0.2h-1l-2-0.2-1-0.1-1.9-0.6-0.9-0.3z"/>
	</g>
</svg>